<svg width="58" height="58" viewBox="0 0 58 58" fill="none" xmlns="http://www.w3.org/2000/svg">
<path d="M30.368 40.0526C30.368 39.4621 30.4374 38.8889 30.5243 38.3158H14.7364V20.9474L28.6311 29.6316L42.5259 20.9474V29.7879C43.7764 29.9963 44.9401 30.4305 45.9995 31.0384V17.4737C45.9995 15.5632 44.4364 14 42.5259 14H14.7364C12.8259 14 11.2627 15.5632 11.2627 17.4737V38.3158C11.2627 40.2263 12.8259 41.7895 14.7364 41.7895H30.5243C30.4374 41.2163 30.368 40.6432 30.368 40.0526ZM42.5259 17.4737L28.6311 26.1579L14.7364 17.4737H42.5259ZM42.5259 33.1053V38.3158H47.7364V41.7895H42.5259V47H39.0522V41.7895H33.8416V38.3158H39.0522V33.1053H42.5259Z" fill="#FDFDFD" stroke="#FDFDFD"/>
<rect x="3" y="3" width="52" height="52" rx="7" stroke="#FDFDFD" stroke-width="4"/>
</svg>
