<svg width="58" height="58" viewBox="0 0 58 58" fill="none" xmlns="http://www.w3.org/2000/svg">
<path fill-rule="evenodd" clip-rule="evenodd" d="M15.9634 11C14.647 11 13.3846 11.5229 12.4538 12.4538C11.5229 13.3846 11 14.647 11 15.9634C11 17.2798 11.5229 18.5423 12.4538 19.4731C13.3846 20.4039 14.647 20.9268 15.9634 20.9268C17.2798 20.9268 18.5423 20.4039 19.4731 19.4731C20.4039 18.5423 20.9268 17.2798 20.9268 15.9634C20.9268 14.647 20.4039 13.3846 19.4731 12.4538C18.5423 11.5229 17.2798 11 15.9634 11ZM13.7073 15.9634C13.7073 15.3651 13.945 14.7912 14.3681 14.3681C14.7912 13.945 15.3651 13.7073 15.9634 13.7073C16.5618 13.7073 17.1356 13.945 17.5587 14.3681C17.9818 14.7912 18.2195 15.3651 18.2195 15.9634C18.2195 16.5618 17.9818 17.1356 17.5587 17.5587C17.1356 17.9818 16.5618 18.2195 15.9634 18.2195C15.3651 18.2195 14.7912 17.9818 14.3681 17.5587C13.945 17.1356 13.7073 16.5618 13.7073 15.9634ZM11 23.1829C11 22.8239 11.1426 22.4796 11.3965 22.2257C11.6503 21.9719 11.9946 21.8293 12.3537 21.8293H19.5732C19.9322 21.8293 20.2765 21.9719 20.5304 22.2257C20.7842 22.4796 20.9268 22.8239 20.9268 23.1829V46.6463C20.9268 47.0054 20.7842 47.3497 20.5304 47.6035C20.2765 47.8574 19.9322 48 19.5732 48H12.3537C11.9946 48 11.6503 47.8574 11.3965 47.6035C11.1426 47.3497 11 47.0054 11 46.6463V23.1829ZM13.7073 24.5366V45.2927H18.2195V24.5366H13.7073ZM23.6341 23.1829C23.6341 22.8239 23.7768 22.4796 24.0306 22.2257C24.2845 21.9719 24.6288 21.8293 24.9878 21.8293H32.2073C32.5663 21.8293 32.9106 21.9719 33.1645 22.2257C33.4184 22.4796 33.561 22.8239 33.561 23.1829V23.9662L34.3461 23.6287C35.6999 23.0505 37.1359 22.6881 38.602 22.5548C43.6105 22.1 48 26.0346 48 31.0883V46.6463C48 47.0054 47.8574 47.3497 47.6035 47.6035C47.3497 47.8574 47.0054 48 46.6463 48H39.4268C39.0678 48 38.7235 47.8574 38.4696 47.6035C38.2158 47.3497 38.0732 47.0054 38.0732 46.6463V34.0122C38.0732 33.4138 37.8355 32.84 37.4124 32.4169C36.9893 31.9938 36.4154 31.7561 35.8171 31.7561C35.2187 31.7561 34.6449 31.9938 34.2218 32.4169C33.7987 32.84 33.561 33.4138 33.561 34.0122V46.6463C33.561 47.0054 33.4184 47.3497 33.1645 47.6035C32.9106 47.8574 32.5663 48 32.2073 48H24.9878C24.6288 48 24.2845 47.8574 24.0306 47.6035C23.7768 47.3497 23.6341 47.0054 23.6341 46.6463V23.1829ZM26.3415 24.5366V45.2927H30.8537V34.0122C30.8537 32.6958 31.3766 31.4334 32.3074 30.5025C33.2382 29.5717 34.5007 29.0488 35.8171 29.0488C37.1335 29.0488 38.3959 29.5717 39.3267 30.5025C40.2576 31.4334 40.7805 32.6958 40.7805 34.0122V45.2927H45.2927V31.0883C45.2927 27.6518 42.2948 24.9373 38.8493 25.2513C37.6655 25.3587 36.506 25.651 35.4128 26.1177L32.7416 27.2638C32.5355 27.3523 32.3107 27.3882 32.0874 27.3683C31.864 27.3484 31.6491 27.2734 31.4619 27.1499C31.2748 27.0265 31.1212 26.8584 31.015 26.6609C30.9088 26.4634 30.8534 26.2426 30.8537 26.0184V24.5366H26.3415Z" fill="#FDFDFD" stroke="#FDFDFD"/>
<rect x="3" y="3" width="52" height="52" rx="7" stroke="#FDFDFD" stroke-width="4"/>
</svg>
