<svg width="128" height="128" viewBox="0 0 128 128" fill="none" xmlns="http://www.w3.org/2000/svg">
<path d="M108.821 37.4735C109.367 41.492 115.433 46.926 117.115 46.7835C118.226 46.698 118.635 41.5395 118.635 37.4735C118.635 35.1555 118.777 33.3125 117.542 32.904C115.595 36.837 110.479 37.6302 108.821 37.4735ZM109.163 35.6733C113.571 35.6733 117.59 32.1583 117.59 29.0613C117.59 27.6363 116.91 26.425 115.181 26.2207C115.481 26.6102 115.614 26.8858 115.614 27.584C115.614 29.9258 112.07 32.4955 108.204 32.4955C106.798 32.4955 106.389 33.4693 106.389 33.968C106.365 35.203 107.501 35.6733 109.163 35.6733ZM108.232 30.9043C107.638 30.9043 106.798 30.9042 106.323 29.9732C106.166 29.6437 106.065 29.2906 106.023 28.9283C105.914 28.3345 105.8 27.7455 105.344 27.4273C106.071 27.6553 106.798 27.6553 107.41 27.6553C109.32 27.6553 111.139 26.3348 112.545 26.3348C113.481 26.3348 113.752 26.9285 113.752 27.5223C113.799 29.3843 109.999 30.9043 108.275 30.9043H108.232ZM13.517 64.102C14.9468 64.102 14.657 55.286 16.994 55.286C17.5403 55.286 17.697 55.8322 17.697 56.5352C17.697 58.535 16.7233 61.442 16.7233 63.057C16.7233 63.874 16.9465 64.1495 17.3123 64.1258C18.3335 64.1258 20.1053 54.4215 21.8343 54.4215C22.3805 54.4215 22.6513 54.9678 22.6513 55.533C22.6513 57.5565 20.0625 63.418 20.0625 65.0567C20.0625 65.3275 20.1765 65.5317 20.3333 65.5317C21.402 65.5317 23.5158 60.967 24.195 58.6727C24.5845 57.4852 25.0833 56.8535 25.5583 56.8535C25.9905 56.8535 26.38 57.3285 26.38 58.307C26.38 60.6013 24.2663 65.964 22.4043 69.5788C20.9698 72.3718 18.723 76.395 18.723 78.6465C18.723 79.7817 18.9463 80.9835 20.5613 82.3943C17.8538 82.2328 16.7423 81.962 15.7448 79.8482C11.2228 88.8447 24.1048 87.985 19.6968 95.984C18.9035 94.5495 12.5385 93.0722 12.5385 84.6885C12.5385 77.44 18.8798 73.2125 18.8798 70.2153C18.8846 69.9137 18.8193 69.6152 18.6891 69.3431C18.5588 69.0711 18.3672 68.8331 18.1293 68.6478C16.7233 67.465 16.6995 66.4865 15.5833 66.4865C14.79 66.4865 13.8115 68.3532 14.8138 70.011C15.1558 70.5572 15.4693 70.8755 15.4693 71.417C15.4693 72.6045 13.6073 75.7822 12.2868 75.7585C10.971 75.7585 9.97352 72.5095 9.97352 67.2608C9.97352 62.6058 11.0423 57.8985 12.3343 57.8985C12.7238 57.8985 12.8093 58.174 12.8093 58.4875C12.8093 59.0338 12.6525 60.15 12.6525 62.012C12.6763 63.988 13.1085 64.1495 13.517 64.102ZM24.309 76.509C26.0808 76.509 27.558 75.1933 27.558 72.2815V67.9638C27.558 66.306 27.7005 64.444 28.7883 63.1473C28.6505 63.6935 28.6505 64.2873 28.6505 64.8288C28.6505 68.4625 30.6503 70.9658 30.6503 74.4855C30.6503 75.806 30.2655 76.509 29.2633 76.4852C28.2895 76.4852 28.3798 75.6017 28.1518 75.6017C27.9903 75.6017 27.7195 76.1433 27.7195 76.737C27.7195 77.5968 28.3798 79.0075 30.104 79.0312C31.624 79.0312 32.8543 77.6443 32.8543 76.0768C32.8543 72.2578 29.8998 68.035 29.8998 63.9643C29.8998 62.1925 30.3748 61.0098 30.7405 60.0788C30.7405 68.4863 37.8988 74.6232 37.8988 78.143C37.9022 78.336 37.8661 78.5276 37.7925 78.7061C37.7189 78.8845 37.6095 79.046 37.471 79.1804C37.3326 79.3149 37.168 79.4195 36.9875 79.4878C36.8069 79.5561 36.6143 79.5866 36.4215 79.5775C36.2375 79.5845 36.0539 79.5545 35.8816 79.4893C35.7094 79.4241 35.5519 79.325 35.4186 79.1979C35.2853 79.0708 35.1789 78.9183 35.1055 78.7493C35.0322 78.5804 34.9935 78.3984 34.9918 78.2143C34.9918 77.915 34.9443 77.8248 34.8303 77.8248C34.5833 77.8248 33.809 78.6655 33.809 79.7817C33.809 81.1877 34.949 82.8693 37.058 82.8693C39.4663 82.8693 40.7868 80.8267 40.7868 79.0075C40.7868 74.552 32.1038 67.826 32.1038 60.625C32.1038 59.3995 32.308 57.395 33.1963 55.875C27.6055 59.466 25.8813 64.2587 25.8813 68.4625C25.8813 72.101 25.7388 73.9155 23.8768 73.9155C22.903 73.9155 22.6513 73.032 22.3093 73.032C22.0623 73.032 21.9245 73.8062 21.9245 74.0105C21.972 75.6017 23.0835 76.4615 24.2425 76.4615H24.309V76.509ZM101.207 28.04C100.39 28.04 99.0503 28.9283 97.9815 28.9283C96.642 28.9045 97.0315 27.2183 95.5495 27.2183C95.1665 27.2284 94.7917 27.3311 94.457 27.5175C91.3933 29.0613 89.004 28.4723 88.4625 28.838C88.3248 28.9045 88.2108 29.0185 88.168 29.2655C88.168 32.448 91.55 37.3547 97.1883 37.3547C101.05 37.3547 104.299 36.039 104.299 33.8825C104.299 31.9967 102.475 28.04 101.207 28.04ZM97.6918 34.2197C94.5805 34.2197 92.5333 32.5383 92.557 31.4268C92.557 31.289 92.6473 31.1987 92.804 31.1987C93.3075 31.1987 94.6708 31.8828 96.4425 32.1773C98.5088 32.5193 99.625 32.562 100.167 32.562C100.713 32.562 100.965 32.6997 100.965 32.8565C100.965 33.379 99.5538 34.2197 97.687 34.2197M25.202 92.4833C23.815 92.8253 21.5635 95.0293 21.5635 98.5063C21.5635 102.639 26.019 109.028 33.334 109.028C39.5138 109.028 41.0385 104.753 41.0385 101.869C41.0385 95.4805 37.1055 90.9823 31.9708 90.9823C29.1778 90.9823 26.6793 93.0247 26.6793 96.0267C26.6793 98.8435 28.793 103.028 33.8375 103.028C36.1983 103.028 37.609 101.318 37.609 99.3897C37.609 97.4802 35.88 94.8677 33.334 94.8677C32.5645 94.8677 32.0183 95.3665 32.0183 96.1882C32.0183 97.2095 33.4243 98.1833 35.177 98.207C35.6045 98.207 35.9465 98.1167 36.108 98.0502C36.203 98.1642 36.222 98.3685 36.222 98.549C36.222 99.5275 35.291 100.116 33.8565 100.116C31.7 100.116 29.629 98.5015 29.629 95.9602C29.629 94.4402 30.9495 93.3477 32.859 93.3477C36.6305 93.3477 38.882 96.7108 38.882 100.026C38.882 103.028 37.2195 104.776 33.8375 104.753C27.0165 104.776 23.7485 98.6393 25.202 92.4833ZM77.7133 105.959C77.281 105.137 77.6183 103.726 76.35 103.726C75.4855 103.726 75.419 104.41 75.3288 104.961C73.4858 104.439 71.9658 104.164 70.6025 104.164C69.6272 104.164 68.7785 104.292 68.0565 104.548C67.5815 103.684 65.4915 102.05 63.6723 101.461C62.9645 105.275 59.535 108.272 54.443 108.704C54.1485 111.208 52.1963 111.839 50.6715 111.839C49.579 111.863 47.831 111.478 47.7408 111.046C47.1518 107.455 44.4253 105.437 43.2425 104.957C43.29 105.342 43.3375 105.755 43.3375 106.14C43.3375 109.18 41.2475 111.094 37.3573 111.094C36.6889 111.096 36.0215 111.042 35.3623 110.932C39.813 115.886 42.9908 114.067 45.0618 115.003C47.7645 116.228 49.9685 120 58.6468 120C61.8055 120 65.0355 118.774 67.1493 117.411C67.5293 118.684 68.8498 119.819 71.011 119.819C74.6923 119.819 76.7585 118.679 76.7585 117.748C76.7585 117.501 76.7348 117.112 76.0983 117.112C75.4618 117.112 75.552 117.274 73.5333 117.274C71.1915 117.25 67.3725 116.342 65.5818 112.253C65.2588 111.569 64.76 111.569 64.6033 111.569C63.4205 111.569 61.6013 115.773 54.1533 115.773C51.0373 115.796 49.5838 114.614 49.5838 114.343C49.5838 114.295 49.5838 114.248 49.7405 114.248C50.035 114.248 51.194 114.39 52.6285 114.39C57.331 114.39 61.1263 112.229 63.4205 109.73C64.2138 108.842 64.6033 108.704 65.2825 108.704C65.8763 108.704 66.5128 109.227 66.8025 110.025C67.8475 112.732 70.2605 114.889 72.8968 114.889C76.4593 114.889 76.5068 108.8 77.3475 108.5C77.5082 108.562 77.6788 108.594 77.851 108.595C78.2785 108.595 78.9625 108.277 78.9625 107.479C78.9625 106.615 77.9175 106.387 77.7133 105.959ZM71.942 110.524C71.4943 110.516 71.0673 110.333 70.7529 110.015C70.4385 109.696 70.2617 109.266 70.2605 108.818C70.2605 107.868 71.011 107.118 71.942 107.118C72.873 107.118 73.6473 107.887 73.6473 108.818C73.6473 109.272 73.4671 109.707 73.1464 110.028C72.8257 110.348 72.3908 110.529 71.9373 110.529M102.451 85.9235C96.2288 85.9235 97.8438 91.3717 90.5668 93.0342C89.2273 93.3287 88.8425 93.761 88.8425 94.35C88.8425 95.4663 89.46 96.896 90.2295 96.896C93.3883 96.896 98.3188 90.3268 99.207 90.3268V90.284C99.5775 90.3077 99.9528 90.341 99.929 91.215C99.929 93.5995 93.07 96.7155 93.07 98.4208C93.07 99.442 95.502 101.603 97.8675 101.603C101.292 101.622 104.361 94.6017 105.088 94.6017C105.658 94.6017 105.862 95.0102 105.862 95.4425C105.862 97.352 103.544 101.076 99.4778 102.691C98.637 103.028 98.4993 103.418 98.4993 103.712C98.4993 104.643 99.568 106.03 100.542 106.03C101.729 106.03 109.681 99.1 109.681 93.5093C109.681 88.2605 105.881 85.9188 102.456 85.9188M105.32 91.937C104.885 91.9277 104.458 91.8189 104.071 91.6187C103.525 91.3717 102.551 90.55 102.551 89.3008C102.551 88.1655 103.188 87.6858 103.777 87.6858C105.596 87.6858 107.501 89.3008 107.529 90.5738C107.529 91.595 106.546 91.937 105.32 91.937ZM24.7033 38.6515C24.7045 39.0993 24.8812 39.5288 25.1957 39.8476C25.5101 40.1665 25.937 40.3493 26.3848 40.3567C26.8184 40.3338 27.2266 40.1454 27.5254 39.8303C27.8242 39.5153 27.9908 39.0976 27.9908 38.6634C27.9908 38.2292 27.8242 37.8115 27.5254 37.4964C27.2266 37.1814 26.8184 36.993 26.3848 36.97C25.9387 36.9782 25.5128 37.1572 25.1947 37.47C24.8766 37.7828 24.6905 38.2056 24.6748 38.6515H24.7033ZM22.4993 34.8562C22.4993 35.792 23.245 36.5377 24.1808 36.5377C24.631 36.5353 25.0621 36.3553 25.3804 36.0369C25.6988 35.7186 25.8788 35.2875 25.8813 34.8373C25.8813 33.9015 25.1118 33.1272 24.1808 33.1272C23.2498 33.1272 22.4993 33.949 22.4993 34.8562ZM20.9745 46.4225C19.996 46.6743 17.9773 47.857 17.9773 49.9707C17.9773 51.4907 19.179 52.4692 20.6373 52.4692C21.4068 52.4692 21.953 52.3078 22.295 52.037C21.7828 51.5709 21.3744 51.0023 21.0961 50.3681C20.8179 49.7339 20.6761 49.0483 20.68 48.3557C20.68 47.515 20.8178 46.9688 20.9745 46.4225ZM10.591 47.04C10.5435 47.2395 10.5435 47.4675 10.5435 47.6717C10.5435 49.6715 11.5695 50.764 12.9755 50.764C14.0205 50.764 15.2698 50.1275 16.3623 48.7405C15.8601 48.8271 15.3518 48.8732 14.8423 48.8783C13.3175 48.8783 11.5885 48.446 10.591 47.0352M9.11377 50.8258C9.11377 54.032 10.0923 55.552 11.8213 55.5758C13.1798 55.5758 14.999 54.5972 17.1555 52.7352C15.4978 53.12 14.2248 53.3717 13.0895 53.3955C11.5695 53.3717 10.4105 52.7733 9.11377 50.8258ZM20.0863 33.8777C20.3351 33.0825 20.4663 32.2552 20.4758 31.422C20.4758 29.3985 19.5448 26.311 16.6568 26.311C16.2794 26.3084 15.9053 26.3815 15.5567 26.526C15.2081 26.6705 14.892 26.8835 14.6271 27.1523C14.3623 27.4211 14.1541 27.7404 14.0148 28.0911C13.8755 28.4418 13.808 28.817 13.8163 29.1942C13.8163 32.5572 17.1793 33.8967 20.0863 33.8777ZM22.2238 38.148C21.6775 37.4213 21.8818 36.761 21.5445 36.419C21.3403 36.2147 20.7465 36.2148 19.977 36.1245C19.6661 36.0933 19.3538 36.0774 19.0413 36.077C17.659 36.077 16.0013 36.2622 14.1345 37.445C10.477 39.763 10.9995 43.6675 10.4295 44.6222C10.3441 44.7661 10.2983 44.93 10.2965 45.0972C10.2965 45.4867 10.724 45.919 11.1135 45.8953C11.4555 45.8953 11.6598 45.805 11.8403 45.805C12.8615 45.805 14.0253 46.508 15.6355 46.5317C16.614 46.5317 17.7493 46.2372 19.179 45.5105C22.2238 43.9905 23.4065 40.2142 23.4065 39.5777C23.4065 38.7845 22.77 38.8748 22.2238 38.148ZM16.4763 44.5557C15.0893 44.5557 13.5645 42.8267 13.5645 41.2592C13.5645 40.4185 14.201 39.3545 14.657 39.3545C14.8185 39.3545 14.9278 39.4685 14.9278 39.782C15.1795 41.853 16.5665 43.031 17.8158 43.6485C17.9535 43.7625 18.0438 43.7625 18.0438 43.8527C18.0438 44.0997 17.2458 44.532 16.4763 44.5557ZM20.452 41.9432C18.9748 41.9432 17.792 39.6917 17.792 38.4187C17.792 37.6255 18.267 37.5352 18.8845 37.5352C19.179 37.5352 19.312 37.5827 19.5448 37.692C19.9058 37.8962 19.9058 38.718 20.3855 39.3735C20.68 39.763 21.478 40.238 21.478 40.58C21.478 41.169 21.136 41.9432 20.452 41.9432ZM24.499 42.9407C23.5633 44.0332 22.5895 45.8952 22.5895 47.8285C22.5895 50.099 23.9955 52.0085 26.1805 52.0085C28.2468 52.0085 29.2205 50.2368 29.2205 48.4175C29.2015 45.5533 26.6365 43.5535 24.499 42.9407ZM15.4218 34.8088C15.4218 34.8088 14.1963 35.7398 12.6763 35.7398C12.2471 35.7488 11.8206 35.671 11.4223 35.5109C11.024 35.3508 10.6622 35.1118 10.3587 34.8083C10.0552 34.5048 9.81618 34.143 9.65612 33.7447C9.49605 33.3464 9.4182 32.9199 9.42727 32.4908C9.42151 31.7725 9.63297 31.0694 10.0339 30.4735C10.4349 29.8775 11.0066 29.4167 11.674 29.1515C11.6265 29.3985 11.6265 29.6027 11.6265 29.8782C11.6075 32.2627 12.9423 34.1058 15.4218 34.8088ZM90.0775 48.8545C90.0775 49.833 90.8945 50.65 91.873 50.6263C92.3205 50.5935 92.739 50.3926 93.0445 50.0639C93.3499 49.7352 93.5197 49.3032 93.5197 48.8545C93.5197 48.4058 93.3499 47.9738 93.0445 47.6451C92.739 47.3164 92.3205 47.1155 91.873 47.0828C91.4017 47.0852 90.9499 47.2718 90.6144 47.6029C90.2789 47.934 90.0862 48.3832 90.0775 48.8545ZM90.1915 54.1935C90.1915 55.286 91.056 56.1933 92.1913 56.1933C92.4537 56.1939 92.7136 56.1427 92.9562 56.0428C93.1988 55.9428 93.4193 55.7959 93.605 55.6106C93.7908 55.4253 93.9382 55.2052 94.0387 54.9628C94.1393 54.7204 94.191 54.4606 94.191 54.1983C94.1923 53.9355 94.1416 53.675 94.0419 53.4319C93.9422 53.1887 93.7954 52.9677 93.6101 52.7814C93.4247 52.5952 93.2043 52.4474 92.9617 52.3465C92.719 52.2457 92.4588 52.1937 92.196 52.1938C91.6683 52.2035 91.1647 52.4171 90.791 52.7899C90.4173 53.1627 90.2025 53.6658 90.1915 54.1935ZM84.102 57.8035C84.1001 58.3847 84.2708 58.9534 84.5924 59.4375C84.9141 59.9215 85.3722 60.2993 85.9087 60.5228C86.4452 60.7463 87.0359 60.8055 87.6061 60.6929C88.1763 60.5803 88.7002 60.301 89.1115 59.8904C89.5228 59.4798 89.803 58.9563 89.9165 58.3863C90.03 57.8163 89.9717 57.2254 89.7491 56.6885C89.5265 56.1517 89.1495 55.693 88.6659 55.3706C88.1824 55.0482 87.614 54.8766 87.0328 54.8775C86.2566 54.8812 85.5134 55.1912 84.9646 55.74C84.4157 56.2888 84.1058 57.0274 84.102 57.8035ZM85.6695 51.8138C85.6707 52.2616 85.8475 52.691 86.1619 53.0099C86.4763 53.3287 86.9033 53.5115 87.351 53.519C88.282 53.519 89.061 52.7448 89.061 51.809C89.061 50.8733 88.282 50.1085 87.351 50.1085C86.9033 50.1222 86.4788 50.3109 86.1688 50.6343C85.8588 50.9576 85.6881 51.3896 85.6933 51.8375L85.6695 51.8138ZM80.1263 55.2242C80.1498 55.6578 80.3388 56.0658 80.6543 56.3642C80.9698 56.6626 81.3877 56.8285 81.8219 56.8279C82.2561 56.8273 82.6735 56.6602 82.9882 56.3609C83.3028 56.0617 83.4907 55.6531 83.513 55.2195C83.5093 54.7706 83.3276 54.3415 83.008 54.0263C82.6883 53.7111 82.2567 53.5355 81.8078 53.538C81.3644 53.5489 80.9423 53.7302 80.6292 54.0442C80.316 54.3583 80.1359 54.7809 80.1263 55.2242ZM84.4868 45.292C84.4868 46.7455 85.7408 47.9995 87.1943 47.9995C88.6478 47.9995 89.9018 46.7645 89.9018 45.292C89.9018 43.8195 88.6668 42.5845 87.1943 42.5845C86.4789 42.5931 85.7952 42.8812 85.2893 43.387C84.7834 43.8929 84.4954 44.5766 84.4868 45.292ZM87.6455 40.1145C87.6461 40.3282 87.6891 40.5397 87.7721 40.7366C87.855 40.9336 87.9762 41.1121 88.1286 41.2619C88.281 41.4117 88.4617 41.5297 88.66 41.6091C88.8584 41.6886 89.0706 41.7279 89.2843 41.7247C89.7126 41.7247 90.1234 41.5546 90.4262 41.2517C90.7291 40.9489 90.8993 40.5381 90.8993 40.1098C90.8993 39.6814 90.7291 39.2706 90.4262 38.9678C90.1234 38.6649 89.7126 38.4948 89.2843 38.4948C88.377 38.5185 87.6218 39.2263 87.6503 40.1098M79.9933 44.1757C79.9933 45.0355 80.701 45.8097 81.5608 45.7907C81.9891 45.7907 82.3999 45.6206 82.7027 45.3177C83.0056 45.0149 83.1758 44.6041 83.1758 44.1757C83.1758 43.7474 83.0056 43.3366 82.7027 43.0338C82.3999 42.7309 81.9891 42.5608 81.5608 42.5608C81.1407 42.5731 80.742 42.7487 80.4494 43.0502C80.1567 43.3518 79.9931 43.7555 79.9933 44.1757ZM79.789 49.6953C79.789 51.1488 80.929 52.3078 82.335 52.284C82.6759 52.2872 83.0139 52.2224 83.3294 52.0934C83.6449 51.9644 83.9316 51.7739 84.1726 51.5328C84.4136 51.2918 84.6042 51.0052 84.7332 50.6897C84.8621 50.3741 84.9269 50.0361 84.9238 49.6953C84.9269 49.3544 84.8621 49.0164 84.7332 48.7008C84.6042 48.3853 84.4136 48.0987 84.1726 47.8577C83.9316 47.6166 83.6449 47.4261 83.3294 47.2971C83.0139 47.1681 82.6759 47.1033 82.335 47.1065C81.9959 47.1025 81.6596 47.1671 81.3461 47.2963C81.0325 47.4256 80.7484 47.6168 80.5106 47.8586C80.2728 48.1003 80.0864 48.3876 79.9624 48.7033C79.8384 49.0189 79.7794 49.3563 79.789 49.6953ZM74.45 52.3742C74.45 53.671 75.5425 54.7635 76.8345 54.7825C77.4721 54.7788 78.0825 54.5238 78.5333 54.073C78.9841 53.6222 79.239 53.0118 79.2428 52.3742C79.2354 51.7378 78.9793 51.1296 78.5292 50.6795C78.0792 50.2295 77.4709 49.9734 76.8345 49.966C76.2011 49.9759 75.5968 50.2336 75.151 50.6837C74.7053 51.1339 74.4537 51.7408 74.45 52.3742ZM75.8798 46.3988C75.8798 47.3298 76.6303 48.0803 77.5613 48.0803C78.4923 48.0803 79.2713 47.3108 79.2713 46.3798C79.2713 45.4488 78.497 44.6697 77.5613 44.6697C77.3393 44.6703 77.1197 44.7153 76.9154 44.8021C76.7111 44.8889 76.5262 45.0157 76.3717 45.1751C76.2172 45.3344 76.0961 45.5231 76.0157 45.73C75.9353 45.937 75.8972 46.1579 75.9035 46.3798H75.875L75.8798 46.3988ZM90.7663 59.466C90.7663 58.6252 91.5358 57.8985 92.3575 57.8985C93.2885 57.8985 93.9915 58.6015 93.9915 59.466C93.9915 60.4445 93.2648 61.1285 92.329 61.1C92.1175 61.1002 91.908 61.0576 91.7134 60.9747C91.5187 60.8918 91.3429 60.7703 91.1964 60.6176C91.05 60.465 90.9359 60.2842 90.8612 60.0863C90.7865 59.8884 90.7573 59.6774 90.7663 59.466ZM92.196 103.959C92.538 103.66 92.6283 103.185 92.6283 102.729V101.755C92.6283 100.525 90.7663 99.7982 88.2203 99.7982C85.1328 99.7982 83.4703 101.185 83.4703 101.774V103.731C83.4703 104.548 85.3133 105.365 87.6503 105.365C89.4458 105.365 91.1083 104.89 92.196 103.959ZM94.4 104.411C92.1466 106.221 89.3389 107.2 86.4485 107.185C84.1543 107.185 83.152 106.458 82.81 106.458C82.3825 106.458 81.9265 106.885 81.4468 107.436C80.4493 108.614 79.1288 110.818 79.1288 113.25C79.1288 114.932 80.4255 116.613 82.8813 116.637C90.8138 116.637 96.718 111.683 96.718 107.66C96.7418 105.38 95.3738 104.406 94.4 104.411ZM90.4005 112.182C89.3318 112.908 87.902 113.502 85.793 113.521C86.1303 112.5 86.382 111.455 86.382 110.434C86.382 110.092 86.3345 109.845 86.287 109.455H86.8333C90.1535 109.431 91.607 108.116 91.854 108.139C92.0583 108.139 92.329 108.253 92.329 109.023C92.329 109.954 91.9015 111.184 90.4005 112.182ZM95.8773 68.8045C95.8773 69.8258 96.1955 71.075 97.288 71.0987C98.1715 71.0987 98.9458 69.7355 98.9458 68.2583C98.9458 66.5578 98.6513 65.261 98.6513 64.577C98.6513 64.2825 98.7843 64.1495 98.9458 64.1495C99.5823 64.1922 100.195 65.9403 100.855 65.9403C101.625 65.9403 102.765 64.5342 103.216 64.5342C103.354 64.5342 103.378 64.691 103.378 64.7385C103.378 65.375 102.399 66.781 102.399 67.351C102.399 67.826 104.831 67.8972 104.831 68.3295C104.831 68.966 102.266 68.966 101.036 69.5075C99.853 70.011 99.1263 70.6475 99.1263 71.5073C99.1263 72.367 99.9908 72.5332 101.197 72.5332C104.038 72.5332 106.014 71.0133 106.65 71.0133C106.783 71.0133 106.878 71.1225 106.878 71.2128C106.878 71.645 105.444 73.032 105.444 73.6448C105.444 74.3478 108.056 75.2122 108.056 75.6445C108.009 75.7822 107.852 75.8012 107.558 75.8012C107.083 75.8012 106.375 75.6682 105.81 75.6682C105.468 75.6682 105.173 75.7158 105.035 75.8725C104.741 76.1908 105.149 78.4613 104.537 78.4613C103.99 78.4613 102.537 73.4643 99.2878 73.4643C98.8128 73.4643 98.4898 73.849 98.4898 74.4855C98.4898 76.167 100.129 78.1193 101.696 79.055C102.399 79.53 103.606 79.986 103.606 80.2568C103.606 80.7555 100.898 80.3042 100.898 81.145C100.898 81.8955 101.216 83.0497 101.216 83.7337C101.216 83.938 101.169 84.1898 100.922 84.2088C100.423 84.2088 99.1738 81.8908 98.58 81.8908C98.0813 81.8908 96.965 83.2777 96.5138 83.2777C96.3998 83.2777 96.3095 83.1447 96.3095 83.0307C96.3095 82.0522 97.877 79.8483 97.877 77.6918C97.877 76.6658 97.7393 74.4618 96.5138 74.4618C95.4925 74.4618 94.3573 76.0768 93.8538 77.668C93.5593 78.599 93.7635 82.19 93.0843 82.19C92.4478 82.19 92.6093 79.7817 91.7638 79.7817C91.1273 79.7817 89.7878 80.917 89.3128 80.917C89.2178 80.917 89.1513 80.8695 89.1513 80.7793C89.1513 80.2805 90.3768 78.6228 90.3768 78.2808C90.3768 77.6443 87.5838 77.554 87.5838 77.0552C87.5838 76.756 88.6763 76.5517 89.6975 76.3712C91.854 75.9865 95.0365 74.419 95.0365 72.215C95.0365 69.7592 92.6758 68.6905 91.1083 67.693C90.3103 67.1895 89.3983 66.762 89.3983 66.42C89.3983 66.078 90.4243 66.078 90.8328 66.078C91.4693 66.078 92.1058 66.0305 92.1058 65.5317C92.1058 65.147 92.0155 64.3965 92.0155 63.8075C92.0155 63.3753 92.063 63.0332 92.2198 63.0332C92.8563 63.0332 93.7398 65.0995 94.172 65.0995C94.856 65.0995 95.787 63.399 96.4235 63.399C96.6278 63.399 96.6943 63.513 96.6943 63.8978C96.6753 65.489 95.8773 67.2845 95.8773 68.8045ZM75.6755 56.4212C76.1505 60.0122 80.9955 58.2167 80.9955 62.5582C80.9955 63.1947 80.834 64.1258 80.834 64.919C80.834 65.85 80.948 66.648 81.6558 66.648C82.3825 66.648 82.5393 66.1445 82.5393 65.4605C82.5393 64.7765 82.3825 63.9405 82.3825 63.4655C82.3825 61.9882 83.4465 61.6463 84.083 61.6463C85.698 61.6463 86.9045 63.285 89.3555 63.3087C88.8093 66.0115 83.2233 65.3038 83.2233 68.2583C83.2233 69.7118 84.6768 70.1012 85.6553 70.1012C86.5388 70.1012 86.8333 69.9635 86.8333 69.213C86.8333 68.7855 86.743 68.3295 86.743 68.0303C86.743 67.8735 86.8808 67.693 87.085 67.693C88.016 67.693 92.5618 71.17 92.5618 72.215C92.5618 73.1887 87.7453 74.1672 86.3345 74.1672C85.907 74.1672 85.8358 73.8728 85.8358 73.7113C85.8358 73.4168 86.5625 72.5333 86.5625 72.0108C86.5625 71.6213 85.926 71.3742 84.2208 71.3742C83.4275 71.3742 82.81 71.4645 82.81 72.101C82.81 73.2363 84.653 74.647 84.653 75.692C84.653 76.5327 84.1543 77.0552 82.791 77.0552C81.651 77.0552 79.9268 76.167 79.9268 74.6898C79.9268 73.507 81.1523 72.329 81.1523 71.6022C81.1523 71.3932 80.9955 71.056 80.4968 71.056C78.9293 71.056 78.497 75.2123 72.949 75.6635C73.8373 74.8703 74.6115 73.963 74.6115 72.1485C74.6115 71.2602 74.4073 70.5335 74.4073 69.555C74.4073 68.282 74.9963 67.6455 75.8323 67.6455C77.4045 67.6455 78.1788 69.8732 79.2 69.8732C79.7463 69.8732 80.34 69.3745 80.34 68.6002C80.34 65.3702 74.1555 65.85 74.1555 61.3328C74.108 60.055 74.564 58.5302 75.6755 56.4212ZM89.9018 82.8028C90.1931 83.2778 90.3372 83.7322 90.334 84.166C90.334 85.3487 89.536 86.4603 89.536 87.6858C89.536 89.0965 90.6285 90.2317 92.196 90.2317C93.925 90.2317 95.1268 88.8448 95.1268 87.1918C95.103 84.9118 93.0605 83.007 89.9018 82.8028ZM75.8798 85.5103C76.312 85.9378 76.426 86.37 76.426 86.7785C76.426 87.415 76.1315 88.0942 76.1315 88.802C76.1239 89.0492 76.1659 89.2955 76.255 89.5262C76.3441 89.757 76.4784 89.9675 76.6502 90.1455C76.822 90.3235 77.0277 90.4653 77.2551 90.5625C77.4826 90.6597 77.7272 90.7103 77.9745 90.7115C78.2395 90.7135 78.5021 90.6623 78.7469 90.5609C78.9917 90.4596 79.2137 90.3101 79.3997 90.1214C79.5858 89.9328 79.732 89.7087 79.8299 89.4625C79.9278 89.2162 79.9752 88.9529 79.9695 88.688C79.9933 87.0968 78.3545 85.5055 75.9035 85.5055L75.8798 85.5103ZM76.9058 80.5085C78.858 80.7792 79.3378 81.4395 79.3378 81.981C79.3378 82.9168 78.497 83.2112 77.6753 83.2112C77.0863 83.2112 76.4023 83.0735 75.6803 83.0735C74.7445 83.0735 73.8135 83.2777 73.0393 84.166C73.5855 84.28 74.4025 84.641 74.4025 85.4817C74.4025 87.9375 67.5863 85.914 67.5863 92.2078C67.5863 95.5708 71.0633 99.2093 76.3358 99.1855C79.0433 99.1855 80.7913 98.2972 80.7913 97.276C80.7913 96.4827 79.3568 97.0243 79.3568 96.345C79.3568 96.0505 79.8603 95.5043 79.8603 95.0293C79.8603 94.825 79.6988 94.4355 79.3568 94.4355C78.5873 94.4355 77.1528 95.661 74.2268 95.6848C71.9278 95.6848 69.7 94.369 69.7 92.5973C69.7 92.2078 69.8615 92.0035 70.1323 92.0035C70.384 92.0035 70.726 92.165 70.9968 92.165C71.2485 92.165 71.2913 92.0035 71.2913 91.5285C71.2913 91.0535 71.2913 89.7567 72.0893 89.7567C72.8873 89.7567 74.4263 92.7303 80.2925 92.7303C82.221 92.7303 85.9925 92.3502 87.4033 91.0725C87.3558 95.7275 83.722 101.864 76.0888 101.864C68.18 101.864 63.9288 95.5043 63.9288 89.6665C63.9564 86.3653 65.292 83.2099 67.6428 80.8921C69.9936 78.5742 73.1676 77.2833 76.4688 77.3022C78.3355 77.3022 79.8793 77.9625 79.8793 78.7367C79.8793 79.9147 77.11 79.2117 76.9058 80.5085ZM81.5133 78.2808C82.0301 78.8785 82.3061 79.6472 82.2875 80.4372C82.2875 82.2565 80.9053 84.1185 80.9053 85.8903C80.9053 88.2795 82.4728 89.7567 84.6293 89.7567C86.9948 89.7567 88.358 87.757 88.358 85.5957C88.358 82.4607 85.964 79.1453 81.5133 78.2808ZM84.748 84.983C84.159 84.9355 83.7268 84.508 83.7268 83.9142C83.7268 83.596 83.931 83.0735 83.9975 82.665C84.0925 82.095 83.95 81.5962 84.292 81.5962C85.0663 81.5962 85.8595 82.8265 85.8595 83.71C85.8595 84.394 85.432 84.983 84.748 84.983ZM49.5125 32.1773C47.356 32.2248 45.3563 33.9965 43.993 36.4048C44.0827 35.9254 44.1288 35.4389 44.1308 34.9512C44.1308 31.6547 42.359 28.6813 39.015 28.6813C36.3123 28.6813 33.8565 30.2487 32.84 33.2887C33.3588 32.7969 34.0281 32.4941 34.74 32.429C35.5855 32.429 35.8325 33.1557 35.8325 34.291C35.8325 35.0605 35.652 35.9487 35.3575 36.7895C34.835 38.1765 33.904 38.6087 33.4053 38.6087C31.2915 38.6087 32.2463 35.1317 31.1728 35.1317C30.2893 35.1317 30.0423 36.9937 30.0423 37.7205C30.0423 40.1288 31.6098 42.6748 35.0868 42.6748C38.768 42.6748 40.858 40.9268 43.1048 38.5613C43.537 41.1073 44.924 45.4678 48.6528 45.4678C50.6715 45.4678 52.125 43.7863 52.2865 41.834C51.9992 42.1133 51.6183 42.2759 51.2178 42.29C50.4435 42.29 50.2868 41.1975 50.2868 40.219C50.2868 38.6515 50.7428 36.97 51.4695 36.97C51.8543 36.97 52.0585 37.2217 52.1488 38.357C52.22 39.2452 52.1488 40.219 52.695 40.219C53.2413 40.219 53.5833 38.471 53.5833 37.2882C53.5833 34.5617 52.3103 32.1773 49.5125 32.1773ZM36.9725 40.3567C36.6068 40.3567 36.5165 40.0147 36.4975 39.7202C36.4975 38.0577 38.312 30.6525 39.6325 30.6525C39.946 30.6525 40.06 30.9043 40.06 31.2463C40.06 32.562 38.4023 40.3567 36.9725 40.3567ZM42.606 37.198C41.5135 38.4235 40.9245 38.927 40.4495 38.927C40.1978 38.946 39.946 38.5185 39.946 38.015C39.946 37.1077 40.5825 33.721 41.8555 33.721C42.359 33.721 42.6963 34.652 42.6963 35.4928C42.6963 36.1293 42.6963 36.647 42.606 37.198ZM45.0808 40.1287C44.6533 40.1525 44.4253 39.4495 44.335 37.9248C45.0143 36.7895 45.4703 36.2907 45.9025 36.2907C46.083 36.2907 46.2445 36.4475 46.2445 37.1743V37.198H46.2635C46.2635 38.6752 45.5605 40.1525 45.0808 40.1287ZM47.356 42.6937C47.0853 42.6937 46.881 42.3138 46.9 41.4255C46.9 39.1313 48.3773 34.9465 49.2655 34.9465C49.5125 34.9465 49.6075 35.5403 49.6075 36.0865C49.6075 38.6278 48.42 42.6937 47.356 42.6937ZM41.5848 43.5868C39.7655 43.5868 39.6753 45.7907 39.6753 50.2462C38.312 47.3155 36.0843 44.2043 33.4528 44.2043C31.6763 44.2043 30.997 45.3823 30.997 47.4533C30.997 47.8808 31.0445 48.5458 31.111 48.8783C31.3153 48.1563 31.9945 47.8617 32.8353 47.8617C34.6545 47.8617 36.8585 49.2677 38.312 51.1535C36.6495 50.859 35.0393 50.5645 33.6998 50.5645C32.859 50.5645 32.0848 50.6548 31.4483 50.9493C30.2228 51.4955 28.565 53.3147 28.565 56.065C28.565 56.4925 28.6125 56.9248 28.679 57.4473C30.1515 54.1555 34.0845 52.6545 36.6305 52.6545C37.1293 52.6545 37.495 52.702 37.837 52.7495C36.5165 53.9275 36.222 55.9937 36.127 57.4045C36.0843 58.0837 35.8373 58.1313 35.3575 58.1075C35.3575 59.5183 36.45 61.5845 36.45 62.6295C36.45 63.0142 36.2458 63.3563 36.0178 63.4275C36.0178 65.2658 37.856 66.629 37.856 67.8117C37.8654 68.0546 37.7935 68.2936 37.6518 68.491C37.7895 69.2415 39.8368 70.562 40.0838 71.1747C40.402 71.9252 40.7868 72.1057 41.0148 72.1057C41.7415 72.1057 42.8768 71.265 42.8768 70.4907C42.8768 70.2437 42.6725 69.9445 42.4968 69.8115C41.6988 69.2178 41.2618 67.9495 40.9293 67.104C40.63 67.104 40.2453 66.9947 40.1075 66.4912C39.8795 65.6077 39.8558 63.9928 39.5138 63.0143C38.9723 62.8813 38.7205 62.677 38.7205 61.5417C38.7205 60.9955 39.0625 58.8343 39.0625 58.0648C38.8108 58.0648 38.4688 57.9033 38.4688 57.3808C38.4688 56.0175 39.832 54.9725 40.1978 53.2245C42.606 55.02 43.176 56.8107 43.176 58.4257C43.176 59.2665 43.0383 60.0882 42.8815 60.834C44.6533 59.9505 47.3323 58.63 47.3323 55.97C47.3323 54.4025 46.6055 52.6782 41.8365 51.9942C43.4148 51.4462 45.0726 51.1622 46.7433 51.1535C49.446 51.1535 51.0373 52.018 51.3508 53.9275C51.9018 53.0868 52.334 52.1083 52.334 51.22C52.334 49.1538 50.605 47.7905 48.401 47.7905C45.8123 47.7905 43.537 49.1538 41.086 50.7688C42.1975 48.4745 42.948 47.135 44.3113 47.135C44.5155 47.135 44.7388 47.1825 44.9715 47.2252C44.5155 45.406 42.5823 43.5678 41.5848 43.5868ZM112.93 74.1055C115.048 74.1055 116.73 76.8795 116.73 80.081C116.73 83.5105 115.115 87.2392 112.251 89.8042C112.203 84.1042 105.206 85.9187 105.206 81.7625C105.206 79.9907 106.479 78.808 108.004 78.808C109.367 78.808 110.389 79.1927 111.206 79.948C110.842 79.5979 110.553 79.1771 110.358 78.7115C110.163 78.2459 110.065 77.7453 110.07 77.2405C110.047 75.578 111.063 74.1055 112.93 74.1055ZM81.5133 30.795C81.1713 30.2487 79.8983 29.9543 79.3093 29.9543C77.4473 29.9543 76.1743 31.27 75.9225 32.4527C75.7431 31.9966 75.6435 31.5129 75.628 31.023C75.628 29.161 76.901 26.862 79.9885 26.862C82.696 26.862 83.741 28.2728 84.1258 28.2728C84.5533 28.2728 84.9665 27.8452 85.3085 27.8452C85.7598 27.8452 85.7835 28.5435 85.7835 29.066C85.7835 30.7475 85.014 33.6783 83.1045 34.7708C82.6599 33.8686 81.9114 33.1521 80.9908 32.7473C80.8654 32.6937 80.758 32.6052 80.6813 32.4924C80.6047 32.3795 80.5621 32.2471 80.5585 32.1108C80.5955 31.8299 80.7017 31.5627 80.8675 31.333C81.0333 31.1033 81.2536 30.9185 81.5085 30.795H81.5133ZM75.1293 33.8825C76.2218 34.975 77.1955 35.4072 78.3783 35.4072C78.8533 35.4072 79.3995 35.2695 79.694 35.2695C80.0788 35.2695 80.3543 35.431 80.3543 35.7445C80.3543 36.2243 79.922 36.9795 79.4233 37.407C79.922 37.635 80.5158 37.6777 81.0573 37.7015C83.4655 37.7015 86.2158 36.1815 86.2158 32.3625C86.7145 33.0228 87.0328 34.4287 87.0328 35.07C87.0328 39.6775 83.6508 41.454 80.511 41.454C78.4685 41.454 77.471 40.77 77.1955 40.77C76.4023 40.77 76.445 42.385 75.8798 42.3375C74.9013 42.1808 74.013 40.0195 74.013 37.73C74.013 36.362 74.3788 34.8848 75.153 33.8398H75.1293V33.8825ZM38.882 6.9595C38.882 6.70775 37.609 6.46075 35.88 6.46075C33.1298 6.46075 33.5193 8.755 31.4055 8.73125C29.2015 8.73125 29.743 6.3705 26.95 6.3705C25.2448 6.3705 23.701 6.665 23.701 7.04975C23.701 7.52475 25.7008 7.32525 25.7008 8.73125C25.7008 10.2085 21.4258 10.6407 21.4258 11.5242C21.4258 11.7997 21.7488 11.9565 22.1763 11.9565C23.112 11.9565 24.5893 11.529 25.6533 11.529C26.247 11.529 26.7933 11.6383 26.7933 12.2083C26.7933 13.277 24.4943 15.1628 24.4943 16.0273C24.4943 16.298 24.7223 16.3455 24.9265 16.3645C25.7673 16.3645 27.2208 14.208 28.565 14.208C30.8118 14.208 29.3155 18.9817 30.56 19.0055C31.8378 19.0055 31.2915 14.303 33.106 14.303C34.5833 14.303 35.7185 17.5472 36.697 17.5472C36.9488 17.5472 37.153 17.343 37.153 17.0485C37.153 16.1602 35.88 14.341 35.88 13.163C35.88 12.4363 36.3788 12.0942 37.0628 12.0942C38.0413 12.0942 39.3333 12.6832 40.041 12.6832C40.288 12.6832 40.5398 12.593 40.5398 12.3033C40.5398 11.2773 36.7683 10.1847 36.7683 8.869C36.8158 7.57225 38.9058 7.57225 38.882 6.9595ZM48.8333 11.2772C48.8333 12.0277 51.4933 13.6618 52.7425 13.6855C53.4693 13.6855 53.6735 12.707 53.6735 11.6858C53.6735 10.4128 53.1273 10.37 52.011 10.37C50.605 10.389 48.8285 10.7785 48.8285 11.2725L48.8333 11.2772ZM53.2413 19.661C53.2413 17.115 46.3775 12.5028 46.2873 10.5268C46.2936 10.3399 46.3775 10.1657 46.539 10.0042C47.717 8.755 52.6 7.862 52.6 6.79325C52.6 6.25175 51.5788 6.25175 51.08 6.25175C47.147 6.25175 41.3758 7.67675 41.3758 9.09225C41.3758 10.5458 46.5343 14.0227 46.5343 15.7707C46.5343 16.2457 46.2398 16.4073 45.76 16.431C44.3303 16.431 41.1953 14.702 39.718 14.702C39.034 14.702 38.7823 15.158 38.7823 15.842C38.7823 17.837 41.1715 21.7035 41.1715 22.8388C41.1715 22.9718 41.124 23.1333 40.9673 23.1333C40.193 23.1333 36.602 18.9058 35.329 18.9058C34.8778 18.9058 34.8303 19.5422 34.8303 20.4732V21.9077C34.8303 22.8815 34.7828 23.4752 34.3315 23.4752C33.239 23.4752 32.7165 20.383 31.6715 20.383C30.579 20.383 30.3558 25.8835 29.3108 25.8598C28.0805 25.8598 29.1493 19.813 27.9475 19.813C26.627 19.813 25.1498 23.8363 24.2188 23.8363C23.8768 23.8363 23.7913 23.4943 23.7913 23.1998C23.7913 21.9743 24.5133 19.9698 24.5133 18.7918C24.5133 18.2028 24.3565 17.8607 23.834 17.8607C22.5135 17.8607 19.6303 19.9745 18.5378 19.9745C18.381 19.9745 18.153 19.8795 18.153 19.7227C18.153 18.7015 22.7605 15.4952 22.7605 14.0417C22.7605 12.6357 16.405 13.5668 16.405 11.9755C16.405 10.6123 20.927 9.22525 20.927 7.81925C20.927 6.589 15.5405 6.0475 13.4695 6.0475C10.9758 6.0475 9.61252 6.342 9.61252 7.06875C9.61252 8.16125 15.3125 8.52225 15.3125 9.45325C15.3125 10.3842 9.43677 12.8875 9.43677 14.3173C9.43677 15.5665 17.7303 14.4312 17.7303 15.7232C17.7255 17.1625 10.477 23.385 10.477 25.4512C10.477 25.9262 10.7953 26.1115 11.294 26.1305C13.498 26.1305 19.2028 21.9505 20.7703 21.9505C21.3165 21.9505 21.3593 22.6108 21.3593 23.1998C21.3593 24.316 20.9745 25.9975 20.9745 27.223C20.9745 28.2015 21.2453 28.857 22.067 28.8855C23.6345 28.8855 25.0643 26.2255 26.133 26.2255C27.4963 26.2255 26.6793 34.0392 28.7455 34.063C30.4698 34.063 31.2013 25.589 32.289 25.589C33.3768 25.589 34.2888 28.0163 35.2673 28.0163C36.5403 28.0163 35.9465 23.746 37.3098 23.746C38.787 23.746 43.0145 28.857 44.9003 28.838C45.4893 28.838 45.6983 28.363 45.6983 27.7693C45.6983 25.5178 42.5633 20.4543 42.5633 18.8393C42.5633 18.407 42.6725 18.293 43.1523 18.293C44.81 18.293 49.6028 20.5635 51.9018 20.5635C52.7615 20.6585 53.2175 20.231 53.2413 19.661ZM14.5668 17.2005C14.5668 18.0413 11.3368 20.8817 10.2063 20.8817C9.77402 20.8817 9.66002 20.383 9.66002 19.908C9.66002 19.0672 10.0448 17.8845 10.5008 17.4998C11.047 16.9963 12.3153 16.7493 13.2938 16.7493C13.9113 16.7493 14.5668 16.8633 14.5668 17.2005ZM45.6983 21.5657C45.6983 23.0192 51.0183 30.3152 51.992 30.2915C52.8328 30.2915 53.4645 28.8142 53.4645 27.5412C53.4635 27.2149 53.3785 26.8942 53.2175 26.6103C52.4433 25.5415 47.0805 21.314 45.9025 21.314C45.7885 21.295 45.6745 21.409 45.6983 21.5657ZM118.658 6.817C116.545 6.817 116.184 6.1615 114.749 6.1615C113.025 6.1615 111.795 7.3395 111.795 9.11125C111.795 9.705 112.004 10.6313 112.004 11.8663C112.004 13.3625 111.704 14.7495 110.389 14.7495C109.187 14.7495 108.707 13.9515 108.707 13.0205C108.707 11.339 109.595 10.2038 109.595 9.09225C109.595 7.06875 107.092 6.47975 104.48 6.47975C101.345 6.47975 97.9578 7.3205 97.9578 7.748C97.9578 8.47475 102.48 8.04725 105.662 12.1132C103.596 12.1607 99.5728 13.0917 99.5728 13.6332C99.5728 14.3172 106.774 15.0915 106.774 18.0888C106.798 20.0648 105.206 20.2738 104.594 20.2928C102.209 20.2928 100.936 17.8607 100.3 17.8607C100.254 17.8594 100.209 17.8674 100.167 17.8841C100.125 17.9008 100.087 17.926 100.055 17.958C100.023 17.99 99.9976 18.0282 99.9809 18.0703C99.9642 18.1124 99.9562 18.1575 99.9575 18.2028C99.9575 18.5875 100.3 19.5897 100.3 20.6585C100.3 23.3612 97.3023 23.6558 97.3023 24.202C97.3023 24.4063 97.3925 24.4965 97.7298 24.544C99.9034 24.879 102.1 25.0457 104.299 25.0427C111.956 25.0427 118.226 22.6535 118.226 15.975C118.226 12.2937 117.091 11.111 117.091 9.3155C117.091 8.7265 117.523 7.501 118.658 6.817ZM107.8 21.295C107.325 21.295 106.774 21.295 106.232 21.2475C111.182 20.4543 113.932 17.59 113.932 13.8185C115.048 14.1368 115.728 15.272 115.704 16.4785C115.704 18.6778 113.595 21.295 107.8 21.295ZM114.773 9.76675C114.16 9.743 113.68 9.31075 113.68 8.72175C113.68 8.10425 114.184 7.67675 114.773 7.653C115.056 7.653 115.328 7.7656 115.528 7.96603C115.729 8.16646 115.842 8.4383 115.842 8.72175C115.842 9.31075 115.367 9.7905 114.773 9.76675ZM117.433 64.7765C115.457 64.7765 114.298 68.2535 112.365 68.4578C113.59 63.3705 118.635 60.758 118.635 56.008C118.635 50.6215 114.113 48.7405 112.227 47.534C109.068 43.0785 106.821 39.554 101.753 39.554C99.5965 39.554 98.2333 39.9435 96.756 39.9435C93.8918 39.9197 93.0035 38.8272 92.7993 38.8272C92.7518 38.8272 92.709 38.8747 92.709 39.0315C92.709 42.9645 94.78 51.9847 103.891 51.9847C108.755 51.9847 110.845 50.1227 111.98 50.1227C113.205 50.1227 117.138 51.4623 117.138 55.9653C117.138 58.459 115.162 61.005 114.431 61.005C113.728 61.0287 112.977 59.8935 112.977 58.687C112.977 57.3475 113.704 54.8917 113.704 53.3717C113.704 52.8017 113.614 52.531 113.277 52.531C112.502 52.531 108.864 54.8015 108.864 57.737C108.864 60.2355 112.545 61.7555 113.932 62.487C112.545 64.7765 111.704 66.2538 111.025 68.3675C111.025 66.7763 109.505 63.5273 109.025 62.164C106.684 55.799 105.867 54.621 101.045 54.0748C101.777 56.6208 110.07 62.7578 110.07 69.0278C110.07 69.4125 110.023 69.9587 109.975 70.1677C107.482 62.848 103.183 61.1665 101.615 59.371C99.074 56.578 100.523 53.8705 96.4568 52.3505C96.6983 52.7122 96.8182 53.1415 96.7988 53.576C96.7988 54.9155 96.0293 56.6208 96.0293 57.8035C96.0293 62.2115 101.207 60.891 104.209 63.304C107.163 65.6885 108.816 69.574 110.051 73.8918C111.229 72.006 111.909 69.7118 114.022 69.7118C115.386 69.7118 115.842 71.4123 115.842 72.595C115.842 72.8468 115.842 73.07 115.794 73.2315C117.818 71.5025 118.886 68.7095 118.886 66.8475C118.886 65.5983 118.459 64.7765 117.433 64.7765ZM109.548 48.1705C109.12 48.1705 108.299 47.9425 107.752 47.9425C106.299 47.9425 105.278 49.9375 104.522 49.9375C104.252 49.9375 104.142 49.6905 104.142 49.4625C104.142 48.6455 105.567 47.667 105.567 47.1207C105.567 46.7407 104.959 46.622 104.712 46.622C103.254 46.622 101.231 48.598 100.095 48.598C99.891 48.598 99.6203 48.484 99.6203 48.218C99.6203 47.667 101.14 46.8975 101.14 46.3037C101.14 45.7812 100.48 45.6672 100.048 45.6672C99.3448 45.6672 97.934 46.0567 97.0505 46.0567C96.5755 46.0567 96.186 45.9618 96.186 45.5818C96.186 44.7125 98.9363 45.2825 98.9363 44.2613C98.9363 43.7625 98.0718 42.8267 98.0718 42.3517C98.0718 42.1712 98.2998 42.0335 98.504 42.0335C99.4825 42.0335 100.504 44.6935 101.639 44.6935C102.143 44.6935 102.276 44.304 102.276 43.7577C102.276 43.2115 102.162 42.9408 102.162 42.4658C102.162 41.967 102.366 41.8293 102.527 41.8293C103.23 41.8293 103.867 45.6435 105.824 45.6435C106.684 45.6245 106.071 43.3065 106.845 43.3065C107.32 43.3065 107.434 43.9858 107.482 44.3753C107.686 46.8738 109.933 46.964 109.933 47.8522C109.933 47.9425 109.8 48.1705 109.548 48.1705ZM87.7785 6.27075C84.938 6.27075 82.8718 7.65775 81.7555 7.65775C81.1 7.71 80.0835 6 79.561 6C79.352 6 79.124 6.4275 79.124 7.14C79.124 7.615 79.124 9.0875 78.6253 9.0875C77.604 9.0875 73.6758 6.1805 73.6758 7.2255C73.6758 8.204 76.2883 11.1823 76.2883 11.9518C76.2883 12.7213 73.6948 13.429 73.6948 13.9515C73.6948 14.8825 76.4688 15.044 76.4688 16.2458C76.4688 17.4333 73.5808 18.3595 73.5808 19.224C73.5808 19.927 76.4688 19.452 76.4688 20.3165C76.4688 21.2 74.355 24.1783 74.355 25.019C74.355 25.247 74.4025 25.247 74.583 25.247C75.3763 25.2708 77.813 22.4968 78.3783 22.4968C79.0575 22.4968 79.1953 24.1307 79.3093 25.133C79.3995 25.608 79.466 25.6793 79.694 25.6793C80.1928 25.6793 81.0145 23.7222 81.556 23.7222C82.354 23.7222 84.5343 25.9547 88.1253 25.9737C93.2363 25.9737 98.0765 22.3827 98.0765 16.0225C98.0765 9.8855 93.754 6.27075 87.7785 6.27075ZM80.53 19.927C80.3923 19.927 80.3258 19.7702 80.3258 19.547L80.2355 17.8607C80.2355 17.704 80.1405 17.5187 79.941 17.5187C79.4423 17.5187 78.4638 17.4712 78.1693 17.4712C77.9698 17.4712 77.8716 17.4269 77.8748 17.3383C77.9175 17.02 79.599 15.8183 79.6228 15.5428C79.6228 15.0678 77.9603 14.1795 77.9603 13.6807C77.9603 13.5857 78.0553 13.543 78.1693 13.543C78.6443 13.543 79.4185 13.7045 80.074 13.7045C80.6203 13.7045 80.7105 11.339 81.119 11.339C81.4183 11.339 81.9408 13.5668 82.373 13.5668C82.9145 13.5668 83.9405 12.9302 84.368 12.9302C84.463 12.9302 84.5295 12.9778 84.5295 13.068C84.5295 13.3625 83.4608 14.4978 83.4608 14.8635C83.4608 15.2483 85.85 15.7233 85.85 16.0415C85.85 16.4738 83.4418 16.431 83.4418 16.8157C83.4418 17.0865 84.3015 18.2693 84.3015 18.654C84.3015 18.749 84.2572 18.7965 84.1685 18.7965C83.8265 18.7965 82.506 18.2028 82.1213 18.2028C81.6463 18.2028 80.8958 19.927 80.53 19.927ZM87.8688 23.5845C84.8953 23.5845 82.962 22.112 82.962 21.3378C82.962 20.953 83.2138 20.7013 83.551 20.7013C84.4868 20.7013 86.5293 22.112 87.1895 22.112C87.3463 22.112 87.484 22.017 87.484 21.77C87.484 20.9957 86.7573 19.7465 86.7573 19.11C86.7573 18.9532 86.895 18.8155 87.142 18.8155C88.282 18.8155 89.9588 19.2905 90.8945 19.2905C91.189 19.2905 91.2745 19.1337 91.2745 18.9532C91.2745 18.0223 88.529 16.1982 88.529 15.6567C88.529 15.158 91.9585 14.3838 91.9585 13.5905C91.9585 12.7498 87.3035 13.3388 87.3035 12.5218C87.3035 11.9328 88.187 10.9068 88.187 10.4555C88.1838 10.2528 88.0334 10.1531 87.7358 10.1562C87.3463 10.1562 85.3275 10.9542 84.4583 10.9542C84.0308 10.9542 83.532 10.8592 83.532 10.2702C83.532 9.2965 85.1898 8.2515 87.7785 8.2515C91.9585 8.2515 94.4618 11.1347 94.4618 15.9513C94.438 22.0645 90.1868 23.5893 87.8688 23.5893M59.193 96.8485C59.1866 97.3021 59.0182 97.7385 58.718 98.0788C58.262 97.238 56.9463 96.8058 56.3525 96.8058C51.992 96.8058 53.6498 103.123 48.99 103.123C47.0378 103.123 46.881 102.871 46.1495 102.871C45.855 102.871 45.6745 103.009 45.6745 103.256C45.6745 104.349 47.242 107.056 51.5835 107.075C55.944 107.075 60.124 104.415 60.124 101.1C60.1053 100.504 59.9748 99.9179 59.7393 99.3707C59.9008 99.1237 60.3283 98.9432 60.7178 98.9432C61.397 98.9432 61.739 99.689 62.3993 99.7128C62.5558 99.7181 62.7118 99.6911 62.8574 99.6335C63.0031 99.5759 63.1353 99.4889 63.2458 99.3779C63.3564 99.2669 63.4428 99.1343 63.4999 98.9885C63.5569 98.8426 63.5832 98.6865 63.5773 98.53C63.5773 97.9885 63.2828 97.599 62.784 97.352C62.9645 97.2213 63.1118 97.05 63.2141 96.852C63.3164 96.6541 63.3708 96.4348 63.373 96.212C63.373 95.4853 62.8743 94.8298 62.0098 94.8298C61.6298 94.8298 61.3733 94.9628 61.0788 95.2383C60.9885 94.4878 60.58 93.761 59.763 93.761C59.1265 93.761 58.6468 94.2123 58.6468 94.9628C58.7418 95.5565 59.193 96.1027 59.193 96.8485ZM45.5605 93.7848C45.266 93.7848 44.8813 93.8322 44.468 93.8322C44.0121 93.8482 43.5639 93.7111 43.195 93.4428C42.5158 92.849 42.3115 89.6712 41.0385 87.7617C39.6515 85.648 38.1315 85.0542 36.0415 85.0542C34.5643 85.0542 32.9065 85.8523 32.9065 87.0588C32.9065 87.7855 33.315 88.2843 35.994 88.9873C39.3808 89.8518 41.105 91.6473 41.4233 93.8038C41.7653 95.8748 42.1738 97.5562 42.9908 98.416C44.0595 99.6225 46.1495 100.649 47.926 100.649C49.446 100.649 50.6715 100.145 50.6715 98.7343C50.6715 97.2143 48.6053 93.7848 45.5605 93.7848ZM47.812 98.4398C46.539 98.4398 44.6295 97.0765 44.6295 96.326C44.6295 95.6895 45.2185 95.3523 45.6983 95.3523C46.767 95.3523 48.6718 96.6443 48.6718 97.7605C48.6528 98.055 48.4485 98.416 47.812 98.4398ZM57.9438 79.8102C55.9915 79.1025 55.127 77.9673 54.7423 75.7395C53.7875 77.0363 53.3315 78.2618 53.3315 78.9885C53.3315 81.8528 57.2645 81.9002 57.2645 83.805C57.2408 84.9212 55.2648 86.0565 52.6523 86.0802C49.6075 86.0565 47.5603 85.5815 45.6508 83.672C45.152 83.1257 44.924 82.646 44.2875 82.646C43.5608 82.646 43.2663 83.919 43.2663 85.059C43.2663 89.2152 47.2183 94.122 52.7188 94.122C59.5825 94.0983 62.2378 89.372 62.2378 85.5578C62.2378 83.33 61.7153 81.2162 57.9438 79.8102ZM55.9203 91.4003C55.3788 91.4003 55.2648 91.0535 55.2648 90.5785C55.2648 90.1937 55.3978 89.467 55.3978 88.916C55.3978 87.4197 55.9678 87.5337 57.4213 86.8735H57.3975C58.4235 86.3985 58.8083 85.762 59.1265 85.762C59.5113 85.762 59.8533 86.0137 59.8533 86.6027C59.8533 88.8067 57.445 91.4003 55.9203 91.4003ZM43.9265 65.47C43.9265 62.7625 50.3533 61.3137 50.3533 57.9697C50.3533 57.4282 50.149 56.4498 49.7643 55.723C52.0158 56.9723 53.6735 59.0385 53.6735 60.72C53.6735 63.6508 50.6288 64.995 50.6288 66.8095C50.6288 68.9233 53.8778 69.2415 53.8778 71.9015C53.8778 74.058 50.7903 76.5565 50.7903 79.3542C50.7903 81.5392 52.3103 83.3063 54.652 83.5818C53.8778 83.7385 53.2175 83.8763 52.4908 83.8763C48.2158 83.8763 43.8125 80.3517 43.8125 76.1717C43.8125 74.1055 44.696 72.2863 46.0593 70.9705C47.242 71.9918 48.4485 72.652 49.218 72.652C49.902 72.652 50.1965 72.31 50.1965 71.8112C50.149 70.2627 43.9455 68.7903 43.9265 65.47ZM31.7903 83.3062C31.6335 81.7862 30.2465 80.6462 28.8358 80.8315C28.3224 80.8836 27.8345 81.0814 27.4298 81.4015C27.0403 80.1285 25.8623 79.036 24.2235 79.2877C23.5112 79.3958 22.8704 79.7808 22.4407 80.3591C22.011 80.9374 21.8272 81.6621 21.9293 82.3753C21.9681 82.6643 22.0447 82.947 22.1573 83.216C22.1573 83.216 21.9055 83.2635 21.725 83.2825C20.4948 83.5105 19.1315 84.7597 19.3595 86.3747C19.5448 87.8282 20.8795 88.9208 22.4043 88.7403C22.901 88.7036 23.3831 88.5559 23.815 88.308C23.9473 88.968 24.3337 89.5495 24.8908 89.9271C25.448 90.3048 26.1313 90.4483 26.7933 90.3268C28.3608 90.1225 29.4058 88.9017 29.2443 87.3295C29.2122 86.9927 29.1289 86.6627 28.9973 86.351L29.3583 86.3035C30.8783 86.009 31.9233 84.7787 31.7903 83.3062ZM25.8575 86.4935C25.6439 86.525 25.4261 86.5134 25.217 86.4592C25.008 86.4051 24.8119 86.3096 24.6404 86.1783C24.4689 86.0471 24.3254 85.8828 24.2185 85.6951C24.1117 85.5075 24.0435 85.3003 24.0181 85.0859C23.9927 84.8714 24.0105 84.654 24.0706 84.4466C24.1306 84.2392 24.2317 84.0459 24.3678 83.8782C24.5038 83.7105 24.6722 83.5718 24.8628 83.4703C25.0534 83.3688 25.2624 83.3065 25.4775 83.2872C25.688 83.2608 25.9016 83.2764 26.106 83.3332C26.3103 83.3899 26.5014 83.4868 26.668 83.618C26.8346 83.7493 26.9735 83.9124 27.0765 84.0978C27.1796 84.2832 27.2448 84.4872 27.2683 84.698C27.3192 85.1232 27.1992 85.5511 26.9346 85.8878C26.6701 86.2245 26.2827 86.4424 25.8575 86.4935Z" fill="black"/>
</svg>
