<svg width="58" height="58" viewBox="0 0 58 58" fill="none" xmlns="http://www.w3.org/2000/svg">
<path d="M30 46C39.9414 46 48 37.9414 48 28C48 18.0586 39.9414 10 30 10C20.0586 10 12 18.0586 12 28C12 30.4822 12.504 32.8474 13.4112 34.9984C13.9134 36.1864 14.1636 36.7804 14.196 37.2304C14.2266 37.6804 14.0934 38.1736 13.8288 39.1618L12 46L18.8382 44.1712C19.8264 43.9066 20.3196 43.7752 20.7696 43.804C21.2196 43.8364 21.8136 44.0866 23.0016 44.5888C25.2168 45.5217 27.5964 46.0016 30 46Z" stroke="#FDFDFD" stroke-width="4" stroke-linecap="round" stroke-linejoin="round"/>
<path d="M22.6399 29.4593L24.2077 27.5135C24.8683 26.6928 25.6837 25.9296 25.7503 24.8352C25.7647 24.5598 25.5703 23.3214 25.1833 20.8429C25.0303 19.8691 24.1195 19.7809 23.3329 19.7809C22.3069 19.7809 21.7939 19.7809 21.2845 20.0149C20.6401 20.3083 19.9796 21.1345 19.8338 21.8274C19.7186 22.3764 19.805 22.7544 19.976 23.5104C20.6995 26.7198 22.4005 29.8895 25.0357 32.5265C27.6726 35.1616 30.8424 36.8626 34.0535 37.5862C34.8095 37.7572 35.1857 37.8436 35.7347 37.7284C36.4277 37.5844 37.2539 36.922 37.5491 36.2776C37.7813 35.7682 37.7813 35.2552 37.7813 34.2292C37.7813 33.4408 37.6931 32.5319 36.7193 32.3789C34.2407 31.9901 33.0023 31.7975 32.7269 31.8119C31.6344 31.8767 30.8694 32.6939 30.0486 33.3545L28.1028 34.9204" stroke="#FDFDFD" stroke-width="4" stroke-linecap="round" stroke-linejoin="round"/>
<rect x="3" y="3" width="52" height="52" rx="7" stroke="#FDFDFD" stroke-width="4"/>
</svg>
