<svg width="66" height="66" viewBox="0 0 66 66" fill="none" xmlns="http://www.w3.org/2000/svg">
<path d="M33.0001 66C24.9334 66 17.8641 63.4682 11.7921 58.4045C5.7201 53.3408 1.94893 46.9581 0.478597 39.2562C0.34293 38.4771 0.492347 37.7667 0.926847 37.125C1.36135 36.4833 1.9691 36.1167 2.7501 36.025C3.5311 35.9333 4.2186 36.1286 4.8126 36.6107C5.4066 37.0929 5.77326 37.7227 5.9126 38.5C7.10426 44.5042 9.95785 49.5229 14.4733 53.5563C18.9888 57.5896 24.3394 59.8583 30.5251 60.3625L28.1876 58.025C27.6834 57.5208 27.4313 56.8792 27.4313 56.1C27.4313 55.3208 27.6834 54.6792 28.1876 54.175C28.6918 53.6708 29.3334 53.4187 30.1126 53.4187C30.8918 53.4187 31.5334 53.6708 32.0376 54.175L41.1126 63.25C41.4334 63.5708 41.537 63.9375 41.4233 64.35C41.3097 64.7625 41.0457 65.0146 40.6313 65.1062C39.3938 65.4271 38.1453 65.6562 36.8858 65.7937C35.6263 65.9313 34.3311 66 33.0001 66ZM24.7501 46.75C23.2376 46.75 21.9433 46.2119 20.8671 45.1357C19.7909 44.0596 19.2519 42.7643 19.2501 41.25V24.75H16.5001C15.7209 24.75 15.0683 24.486 14.5421 23.958C14.0159 23.43 13.7519 22.7773 13.7501 22C13.7483 21.2227 14.0123 20.57 14.5421 20.042C15.0719 19.514 15.7246 19.25 16.5001 19.25H19.2501V16.5C19.2501 15.7208 19.5141 15.0682 20.0421 14.542C20.5701 14.0158 21.2228 13.7518 22.0001 13.75C22.7774 13.7482 23.431 14.0122 23.9608 14.542C24.4907 15.0718 24.7538 15.7245 24.7501 16.5V41.25H49.5001C50.2793 41.25 50.9328 41.514 51.4608 42.042C51.9888 42.57 52.2519 43.2227 52.2501 44C52.2483 44.7773 51.9843 45.4309 51.4581 45.9607C50.9319 46.4906 50.2793 46.7537 49.5001 46.75H46.7501V49.5C46.7501 50.2792 46.4861 50.9327 45.9581 51.4607C45.4301 51.9887 44.7774 52.2518 44.0001 52.25C43.2228 52.2482 42.5701 51.9842 42.0421 51.458C41.5141 50.9318 41.2501 50.2792 41.2501 49.5V46.75H24.7501ZM41.2501 35.75V24.75H30.2501V19.25H41.2501C42.7626 19.25 44.0578 19.789 45.1358 20.867C46.2138 21.945 46.7519 23.2393 46.7501 24.75V35.75H41.2501ZM33.0001 0C41.0668 0 48.137 2.52083 54.2108 7.5625C60.2847 12.6042 64.054 18.9979 65.5188 26.7438C65.6563 27.5229 65.5078 28.2333 65.0733 28.875C64.6388 29.5167 64.0311 29.8833 63.2501 29.975C62.4691 30.0667 61.7816 29.8714 61.1876 29.3893C60.5936 28.9071 60.2269 28.2773 60.0876 27.5C58.8959 21.4958 56.0423 16.4771 51.5268 12.4438C47.0113 8.41042 41.6608 6.14167 35.4751 5.6375L37.8126 7.975C38.3168 8.47917 38.5688 9.12083 38.5688 9.9C38.5688 10.6792 38.3168 11.3208 37.8126 11.825C37.3084 12.3292 36.6668 12.5812 35.8876 12.5812C35.1084 12.5812 34.4668 12.3292 33.9626 11.825L24.8876 2.75C24.5668 2.42917 24.4641 2.0625 24.5796 1.65C24.6951 1.2375 24.9582 0.985417 25.3688 0.89375C26.6063 0.572917 27.8558 0.34375 29.1171 0.20625C30.3784 0.06875 31.6728 0 33.0001 0Z" fill="white"/>
</svg>
