<svg width="56" height="56" viewBox="0 0 56 56" fill="none" xmlns="http://www.w3.org/2000/svg">
<path d="M6 55.5C4.4875 55.5 3.19317 54.9619 2.117 53.8857C1.04083 52.8096 0.501833 51.5143 0.5 50V17C0.5 15.4875 1.039 14.1932 2.117 13.117C3.195 12.0408 4.48933 11.5018 6 11.5H17L28 0.5L39 11.5H50C51.5125 11.5 52.8078 12.039 53.8857 13.117C54.9637 14.195 55.5018 15.4893 55.5 17V50C55.5 51.5125 54.9619 52.8078 53.8857 53.8857C52.8096 54.9637 51.5143 55.5018 50 55.5H6ZM6 50H50V17H6V50ZM11.5 44.5H44.5L34.1875 30.75L25.9375 41.75L19.75 33.5L11.5 44.5ZM43.125 30.75C44.2708 30.75 45.2453 30.3494 46.0482 29.5482C46.8512 28.7471 47.2518 27.7727 47.25 26.625C47.2482 25.4773 46.8476 24.5038 46.0482 23.7045C45.2489 22.9052 44.2745 22.5037 43.125 22.5C41.9755 22.4963 41.002 22.8978 40.2045 23.7045C39.407 24.5112 39.0055 25.4847 39 26.625C38.9945 27.7653 39.396 28.7397 40.2045 29.5482C41.013 30.3567 41.9865 30.7573 43.125 30.75ZM22.775 11.5H33.225L28 6.275L22.775 11.5Z" fill="white"/>
</svg>
