<svg width="56" height="56" viewBox="0 0 56 56" fill="none" xmlns="http://www.w3.org/2000/svg">
<path d="M6 0.5C4.54131 0.5 3.14236 1.07946 2.11091 2.11091C1.07946 3.14236 0.5 4.54131 0.5 6V33.5H6V6H33.5V0.5H6ZM17 11.5C15.5413 11.5 14.1424 12.0795 13.1109 13.1109C12.0795 14.1424 11.5 15.5413 11.5 17V44.5H17V17H44.5V11.5H17ZM50 28V50H28V28H50ZM50 22.5H28C26.5413 22.5 25.1424 23.0795 24.1109 24.1109C23.0795 25.1424 22.5 26.5413 22.5 28V50C22.5 51.4587 23.0795 52.8576 24.1109 53.8891C25.1424 54.9205 26.5413 55.5 28 55.5H50C51.4587 55.5 52.8576 54.9205 53.8891 53.8891C54.9205 52.8576 55.5 51.4587 55.5 50V28C55.5 26.5413 54.9205 25.1424 53.8891 24.1109C52.8576 23.0795 51.4587 22.5 50 22.5ZM33.5 30.75V47.25L44.5 39L33.5 30.75Z" fill="white"/>
</svg>
