<svg width="71" height="16" viewBox="0 0 71 16" fill="none" xmlns="http://www.w3.org/2000/svg">
<path fill-rule="evenodd" clip-rule="evenodd" d="M3 5.5L6 8.5L9 5.5L10 6.5L6 10.5L2 6.5L3 5.5Z" fill="black"/>
<path d="M20.0002 14.6667C19.0891 14.6667 18.2279 14.4916 17.4168 14.1413C16.6057 13.7911 15.8975 13.3133 15.2922 12.708C14.6868 12.1027 14.2091 11.3944 13.8588 10.5833C13.5086 9.77222 13.3335 8.91111 13.3335 8C13.3335 7.07778 13.5086 6.214 13.8588 5.40867C14.2091 4.60333 14.6868 3.89778 15.2922 3.292C15.8975 2.68622 16.6057 2.20844 17.4168 1.85867C18.2279 1.50889 19.0891 1.33378 20.0002 1.33333C20.9224 1.33333 21.7864 1.50844 22.5922 1.85867C23.3979 2.20889 24.1033 2.68667 24.7082 3.292C25.3131 3.89733 25.7908 4.60289 26.1415 5.40867C26.4922 6.21444 26.6673 7.07822 26.6668 8C26.6668 8.91111 26.4917 9.77222 26.1415 10.5833C25.7913 11.3944 25.3135 12.1029 24.7082 12.7087C24.1028 13.3144 23.3973 13.7922 22.5915 14.142C21.7857 14.4918 20.9219 14.6667 20.0002 14.6667ZM20.0002 13.3C20.2891 12.9 20.5391 12.4833 20.7502 12.05C20.9613 11.6167 21.1335 11.1556 21.2668 10.6667H18.7335C18.8668 11.1556 19.0391 11.6167 19.2502 12.05C19.4613 12.4833 19.7113 12.9 20.0002 13.3ZM18.2668 13.0333C18.0668 12.6667 17.8919 12.286 17.7422 11.8913C17.5924 11.4967 17.4673 11.0884 17.3668 10.6667H15.4002C15.7224 11.2222 16.1253 11.7056 16.6088 12.1167C17.0924 12.5278 17.6451 12.8333 18.2668 13.0333ZM21.7335 13.0333C22.3557 12.8333 22.9086 12.5278 23.3922 12.1167C23.8757 11.7056 24.2784 11.2222 24.6002 10.6667H22.6335C22.5335 11.0889 22.4086 11.4973 22.2588 11.892C22.1091 12.2867 21.9339 12.6671 21.7335 13.0333ZM14.8335 9.33333H17.1002C17.0668 9.11111 17.0419 8.89178 17.0255 8.67533C17.0091 8.45889 17.0006 8.23378 17.0002 8C16.9997 7.76622 17.0082 7.54133 17.0255 7.32533C17.0428 7.10933 17.0677 6.88978 17.1002 6.66667H14.8335C14.7779 6.88889 14.7364 7.10844 14.7088 7.32533C14.6813 7.54222 14.6673 7.76711 14.6668 8C14.6664 8.23289 14.6804 8.458 14.7088 8.67533C14.7373 8.89267 14.7788 9.112 14.8335 9.33333ZM18.4335 9.33333H21.5668C21.6002 9.11111 21.6253 8.89178 21.6422 8.67533C21.6591 8.45889 21.6673 8.23378 21.6668 8C21.6664 7.76622 21.6579 7.54133 21.6415 7.32533C21.6251 7.10933 21.6002 6.88978 21.5668 6.66667H18.4335C18.4002 6.88889 18.3753 7.10844 18.3588 7.32533C18.3424 7.54222 18.3339 7.76711 18.3335 8C18.3331 8.23289 18.3415 8.458 18.3588 8.67533C18.3762 8.89267 18.4011 9.112 18.4335 9.33333ZM22.9002 9.33333H25.1668C25.2224 9.11111 25.2642 8.89178 25.2922 8.67533C25.3202 8.45889 25.3339 8.23378 25.3335 8C25.3331 7.76622 25.3193 7.54133 25.2922 7.32533C25.2651 7.10933 25.2233 6.88978 25.1668 6.66667H22.9002C22.9335 6.88889 22.9586 7.10844 22.9755 7.32533C22.9924 7.54222 23.0006 7.76711 23.0002 8C22.9997 8.23289 22.9913 8.458 22.9748 8.67533C22.9584 8.89267 22.9335 9.112 22.9002 9.33333ZM22.6335 5.33333H24.6002C24.2779 4.77778 23.8753 4.29444 23.3922 3.88333C22.9091 3.47222 22.3562 3.16667 21.7335 2.96667C21.9335 3.33333 22.1086 3.714 22.2588 4.10867C22.4091 4.50333 22.5339 4.91155 22.6335 5.33333ZM18.7335 5.33333H21.2668C21.1335 4.84444 20.9613 4.38333 20.7502 3.95C20.5391 3.51667 20.2891 3.1 20.0002 2.7C19.7113 3.1 19.4613 3.51667 19.2502 3.95C19.0391 4.38333 18.8668 4.84444 18.7335 5.33333ZM15.4002 5.33333H17.3668C17.4668 4.91111 17.5919 4.50267 17.7422 4.108C17.8924 3.71333 18.0673 3.33289 18.2668 2.96667C17.6446 3.16667 17.0917 3.47222 16.6082 3.88333C16.1246 4.29444 15.7219 4.77778 15.4002 5.33333Z" fill="black"/>
<path d="M37.024 3.376H40.064C41.072 3.376 41.872 3.648 42.464 4.192C43.056 4.72 43.36 5.424 43.36 6.272C43.36 7.12 43.056 7.808 42.448 8.352C41.856 8.896 41.056 9.168 40.064 9.168H39.168V12H37.024V3.376ZM40.048 5.28H39.168V7.264H40.048C40.736 7.264 41.168 6.896 41.168 6.272C41.168 5.648 40.736 5.28 40.048 5.28ZM43.9573 3.376H51.5893V5.376H48.8533V12H46.7093V5.376H43.9573V3.376ZM55.9459 3.376H59.0179C60.9219 3.376 62.0579 4.336 62.0579 5.92C62.0579 6.608 61.8339 7.152 61.3859 7.552C62.1539 7.92 62.5379 8.544 62.5379 9.392C62.5379 10.976 61.3219 12 59.4499 12H55.9459V3.376ZM59.3539 8.432H58.0899V10.176H59.3539C59.9139 10.176 60.2979 9.84 60.2979 9.312C60.2979 8.784 59.9299 8.432 59.3539 8.432ZM58.9699 5.216H58.0899V6.88H59.0019C59.5299 6.88 59.8659 6.56 59.8659 6.064C59.8659 5.552 59.4979 5.216 58.9699 5.216ZM64.1021 3.376H67.0461C69.0781 3.376 70.3421 4.512 70.3421 6.24C70.3421 7.216 69.9101 7.952 69.0621 8.416L70.7261 12H68.3741L66.9821 8.88H66.2461V12H64.1021V3.376ZM67.0461 5.28H66.2461V7.216H67.0461C67.7341 7.216 68.1341 6.848 68.1341 6.256C68.1341 5.6 67.7661 5.28 67.0461 5.28Z" fill="#0C0C0C"/>
</svg>
