<svg width="52" height="67" viewBox="0 0 52 67" fill="none" xmlns="http://www.w3.org/2000/svg">
<path d="M46.9892 30.5333C46.1363 29.4208 45.0979 28.4567 44.1338 27.4925C41.6492 25.2675 38.8308 23.6729 36.4575 21.3367C30.9321 15.9225 29.7083 6.98542 33.2313 0.125C29.7083 0.977917 26.6304 2.90625 23.9975 5.02C14.3929 12.7333 10.6104 26.3429 15.1346 38.0242C15.2829 38.395 15.4312 38.7658 15.4312 39.2479C15.4312 40.0638 14.875 40.8054 14.1333 41.1021C13.2804 41.4729 12.3904 41.2504 11.6858 40.6571C11.4754 40.4808 11.2993 40.267 11.1667 40.0267C6.97625 34.7238 6.30875 27.1217 9.12708 21.04C2.93417 26.0833 -0.440415 34.6125 0.0416679 42.6596C0.264168 44.5138 0.486668 46.3679 1.11708 48.2221C1.63625 50.4471 2.6375 52.6721 3.75 54.6375C7.755 61.0529 14.6896 65.6513 22.1433 66.5783C30.0792 67.5796 38.5713 66.1333 44.6529 60.645C51.4392 54.4892 53.8125 44.625 50.3267 36.17L49.8446 35.2058C49.0658 33.5 46.9892 30.5333 46.9892 30.5333ZM35.2708 53.8958C34.2325 54.7858 32.5267 55.75 31.1917 56.1208C27.0383 57.6042 22.885 55.5275 20.4375 53.08C24.8504 52.0417 27.4833 48.7783 28.2621 45.4779C28.8925 42.5112 27.7058 40.0638 27.2238 37.2083C26.7788 34.4642 26.8529 32.1279 27.8542 29.5692C28.5588 30.9783 29.3004 32.3875 30.1904 33.5C33.0458 37.2083 37.5329 38.84 38.4971 43.8833C38.6454 44.4025 38.7196 44.9217 38.7196 45.4779C38.8308 48.5187 37.4958 51.8563 35.2708 53.8958Z" fill="#EF3D4A"/>
</svg>
