<svg width="312" height="354" viewBox="0 0 312 354" fill="none" xmlns="http://www.w3.org/2000/svg">
<path d="M68.8333 0H32.3889C28.7643 0 25.2881 1.45105 22.7251 4.03394C20.1621 6.61683 18.7222 10.12 18.7222 13.7727H14.1667C10.542 13.7727 7.06587 15.2238 4.50287 17.8067C1.93988 20.3896 0.5 23.8927 0.5 27.5455V41.3182C0.5 44.9709 1.93988 48.4741 4.50287 51.057C7.06587 53.6399 10.542 55.0909 14.1667 55.0909H41.5C42.7082 55.0909 43.8669 55.5746 44.7213 56.4356C45.5756 57.2965 46.0556 58.4642 46.0556 59.6818V64.2727C43.6391 64.2727 41.3217 65.2401 39.613 66.962C37.9044 68.6839 36.9444 71.0194 36.9444 73.4545V91.8182C36.9444 94.2533 37.9044 96.5888 39.613 98.3107C41.3217 100.033 43.6391 101 46.0556 101H55.1667C57.5831 101 59.9005 100.033 61.6092 98.3107C63.3179 96.5888 64.2778 94.2533 64.2778 91.8182V73.4545C64.2778 71.0194 63.3179 68.6839 61.6092 66.962C59.9005 65.2401 57.5831 64.2727 55.1667 64.2727V59.6818C55.1667 56.0291 53.7268 52.5259 51.1638 49.943C48.6008 47.3601 45.1246 45.9091 41.5 45.9091H14.1667C12.9585 45.9091 11.7997 45.4254 10.9454 44.5644C10.0911 43.7035 9.61111 42.5358 9.61111 41.3182V27.5455C9.61111 26.3279 10.0911 25.1602 10.9454 24.2992C11.7997 23.4382 12.9585 22.9545 14.1667 22.9545H18.7222C18.7222 26.6073 20.1621 30.1104 22.7251 32.6933C25.2881 35.2762 28.7643 36.7273 32.3889 36.7273H68.8333C72.458 36.7273 75.9341 35.2762 78.4971 32.6933C81.0601 30.1104 82.5 26.6073 82.5 22.9545V13.7727C82.5 10.12 81.0601 6.61683 78.4971 4.03394C75.9341 1.45105 72.458 0 68.8333 0ZM55.1667 73.4545V91.8182H46.0556V73.4545H55.1667ZM73.3889 22.9545C73.3889 24.1721 72.9089 25.3398 72.0546 26.2008C71.2003 27.0618 70.0415 27.5455 68.8333 27.5455H32.3889C31.1807 27.5455 30.022 27.0618 29.1676 26.2008C28.3133 25.3398 27.8333 24.1721 27.8333 22.9545V13.7727C27.8333 12.5551 28.3133 11.3874 29.1676 10.5265C30.022 9.6655 31.1807 9.18182 32.3889 9.18182H68.8333C70.0415 9.18182 71.2003 9.6655 72.0546 10.5265C72.9089 11.3874 73.3889 12.5551 73.3889 13.7727V22.9545Z" fill="white"/>
<path d="M68.8333 126H32.3889C28.7643 126 25.2881 127.451 22.7251 130.034C20.1621 132.617 18.7222 136.12 18.7222 139.773H14.1667C10.542 139.773 7.06587 141.224 4.50287 143.807C1.93988 146.39 0.5 149.893 0.5 153.545V167.318C0.5 170.971 1.93988 174.474 4.50287 177.057C7.06587 179.64 10.542 181.091 14.1667 181.091H41.5C42.7082 181.091 43.8669 181.575 44.7213 182.436C45.5756 183.297 46.0556 184.464 46.0556 185.682V190.273C43.6391 190.273 41.3217 191.24 39.613 192.962C37.9044 194.684 36.9444 197.019 36.9444 199.455V217.818C36.9444 220.253 37.9044 222.589 39.613 224.311C41.3217 226.033 43.6391 227 46.0556 227H55.1667C57.5831 227 59.9005 226.033 61.6092 224.311C63.3179 222.589 64.2778 220.253 64.2778 217.818V199.455C64.2778 197.019 63.3179 194.684 61.6092 192.962C59.9005 191.24 57.5831 190.273 55.1667 190.273V185.682C55.1667 182.029 53.7268 178.526 51.1638 175.943C48.6008 173.36 45.1246 171.909 41.5 171.909H14.1667C12.9585 171.909 11.7997 171.425 10.9454 170.564C10.0911 169.703 9.61111 168.536 9.61111 167.318V153.545C9.61111 152.328 10.0911 151.16 10.9454 150.299C11.7997 149.438 12.9585 148.955 14.1667 148.955H18.7222C18.7222 152.607 20.1621 156.11 22.7251 158.693C25.2881 161.276 28.7643 162.727 32.3889 162.727H68.8333C72.458 162.727 75.9341 161.276 78.4971 158.693C81.0601 156.11 82.5 152.607 82.5 148.955V139.773C82.5 136.12 81.0601 132.617 78.4971 130.034C75.9341 127.451 72.458 126 68.8333 126ZM55.1667 199.455V217.818H46.0556V199.455H55.1667ZM73.3889 148.955C73.3889 150.172 72.9089 151.34 72.0546 152.201C71.2003 153.062 70.0415 153.545 68.8333 153.545H32.3889C31.1807 153.545 30.022 153.062 29.1676 152.201C28.3133 151.34 27.8333 150.172 27.8333 148.955V139.773C27.8333 138.555 28.3133 137.387 29.1676 136.526C30.022 135.666 31.1807 135.182 32.3889 135.182H68.8333C70.0415 135.182 71.2003 135.666 72.0546 136.526C72.9089 137.387 73.3889 138.555 73.3889 139.773V148.955Z" fill="white"/>
<path d="M182.833 0H146.389C142.764 0 139.288 1.45105 136.725 4.03394C134.162 6.61683 132.722 10.12 132.722 13.7727H128.167C124.542 13.7727 121.066 15.2238 118.503 17.8067C115.94 20.3896 114.5 23.8927 114.5 27.5455V41.3182C114.5 44.9709 115.94 48.4741 118.503 51.057C121.066 53.6399 124.542 55.0909 128.167 55.0909H155.5C156.708 55.0909 157.867 55.5746 158.721 56.4356C159.576 57.2965 160.056 58.4642 160.056 59.6818V64.2727C157.639 64.2727 155.322 65.2401 153.613 66.962C151.904 68.6839 150.944 71.0194 150.944 73.4545V91.8182C150.944 94.2533 151.904 96.5888 153.613 98.3107C155.322 100.033 157.639 101 160.056 101H169.167C171.583 101 173.901 100.033 175.609 98.3107C177.318 96.5888 178.278 94.2533 178.278 91.8182V73.4545C178.278 71.0194 177.318 68.6839 175.609 66.962C173.901 65.2401 171.583 64.2727 169.167 64.2727V59.6818C169.167 56.0291 167.727 52.5259 165.164 49.943C162.601 47.3601 159.125 45.9091 155.5 45.9091H128.167C126.958 45.9091 125.8 45.4254 124.945 44.5644C124.091 43.7035 123.611 42.5358 123.611 41.3182V27.5455C123.611 26.3279 124.091 25.1602 124.945 24.2992C125.8 23.4382 126.958 22.9545 128.167 22.9545H132.722C132.722 26.6073 134.162 30.1104 136.725 32.6933C139.288 35.2762 142.764 36.7273 146.389 36.7273H182.833C186.458 36.7273 189.934 35.2762 192.497 32.6933C195.06 30.1104 196.5 26.6073 196.5 22.9545V13.7727C196.5 10.12 195.06 6.61683 192.497 4.03394C189.934 1.45105 186.458 0 182.833 0ZM169.167 73.4545V91.8182H160.056V73.4545H169.167ZM187.389 22.9545C187.389 24.1721 186.909 25.3398 186.055 26.2008C185.2 27.0618 184.042 27.5455 182.833 27.5455H146.389C145.181 27.5455 144.022 27.0618 143.168 26.2008C142.313 25.3398 141.833 24.1721 141.833 22.9545V13.7727C141.833 12.5551 142.313 11.3874 143.168 10.5265C144.022 9.6655 145.181 9.18182 146.389 9.18182H182.833C184.042 9.18182 185.2 9.6655 186.055 10.5265C186.909 11.3874 187.389 12.5551 187.389 13.7727V22.9545Z" fill="white"/>
<path d="M182.833 126H146.389C142.764 126 139.288 127.451 136.725 130.034C134.162 132.617 132.722 136.12 132.722 139.773H128.167C124.542 139.773 121.066 141.224 118.503 143.807C115.94 146.39 114.5 149.893 114.5 153.545V167.318C114.5 170.971 115.94 174.474 118.503 177.057C121.066 179.64 124.542 181.091 128.167 181.091H155.5C156.708 181.091 157.867 181.575 158.721 182.436C159.576 183.297 160.056 184.464 160.056 185.682V190.273C157.639 190.273 155.322 191.24 153.613 192.962C151.904 194.684 150.944 197.019 150.944 199.455V217.818C150.944 220.253 151.904 222.589 153.613 224.311C155.322 226.033 157.639 227 160.056 227H169.167C171.583 227 173.901 226.033 175.609 224.311C177.318 222.589 178.278 220.253 178.278 217.818V199.455C178.278 197.019 177.318 194.684 175.609 192.962C173.901 191.24 171.583 190.273 169.167 190.273V185.682C169.167 182.029 167.727 178.526 165.164 175.943C162.601 173.36 159.125 171.909 155.5 171.909H128.167C126.958 171.909 125.8 171.425 124.945 170.564C124.091 169.703 123.611 168.536 123.611 167.318V153.545C123.611 152.328 124.091 151.16 124.945 150.299C125.8 149.438 126.958 148.955 128.167 148.955H132.722C132.722 152.607 134.162 156.11 136.725 158.693C139.288 161.276 142.764 162.727 146.389 162.727H182.833C186.458 162.727 189.934 161.276 192.497 158.693C195.06 156.11 196.5 152.607 196.5 148.955V139.773C196.5 136.12 195.06 132.617 192.497 130.034C189.934 127.451 186.458 126 182.833 126ZM169.167 199.455V217.818H160.056V199.455H169.167ZM187.389 148.955C187.389 150.172 186.909 151.34 186.055 152.201C185.2 153.062 184.042 153.545 182.833 153.545H146.389C145.181 153.545 144.022 153.062 143.168 152.201C142.313 151.34 141.833 150.172 141.833 148.955V139.773C141.833 138.555 142.313 137.387 143.168 136.526C144.022 135.666 145.181 135.182 146.389 135.182H182.833C184.042 135.182 185.2 135.666 186.055 136.526C186.909 137.387 187.389 138.555 187.389 139.773V148.955Z" fill="white"/>
<path d="M297.667 0H260.778C257.109 0 253.59 1.45105 250.996 4.03394C248.402 6.61683 246.944 10.12 246.944 13.7727H242.333C238.665 13.7727 235.146 15.2238 232.552 17.8067C229.957 20.3896 228.5 23.8927 228.5 27.5455V41.3182C228.5 44.9709 229.957 48.4741 232.552 51.057C235.146 53.6399 238.665 55.0909 242.333 55.0909H270C271.223 55.0909 272.396 55.5746 273.261 56.4356C274.125 57.2965 274.611 58.4642 274.611 59.6818V64.2727C272.165 64.2727 269.82 65.2401 268.09 66.962C266.361 68.6839 265.389 71.0194 265.389 73.4545V91.8182C265.389 94.2533 266.361 96.5888 268.09 98.3107C269.82 100.033 272.165 101 274.611 101H283.833C286.279 101 288.625 100.033 290.354 98.3107C292.084 96.5888 293.056 94.2533 293.056 91.8182V73.4545C293.056 71.0194 292.084 68.6839 290.354 66.962C288.625 65.2401 286.279 64.2727 283.833 64.2727V59.6818C283.833 56.0291 282.376 52.5259 279.782 49.943C277.187 47.3601 273.669 45.9091 270 45.9091H242.333C241.11 45.9091 239.938 45.4254 239.073 44.5644C238.208 43.7035 237.722 42.5358 237.722 41.3182V27.5455C237.722 26.3279 238.208 25.1602 239.073 24.2992C239.938 23.4382 241.11 22.9545 242.333 22.9545H246.944C246.944 26.6073 248.402 30.1104 250.996 32.6933C253.59 35.2762 257.109 36.7273 260.778 36.7273H297.667C301.335 36.7273 304.854 35.2762 307.448 32.6933C310.043 30.1104 311.5 26.6073 311.5 22.9545V13.7727C311.5 10.12 310.043 6.61683 307.448 4.03394C304.854 1.45105 301.335 0 297.667 0ZM283.833 73.4545V91.8182H274.611V73.4545H283.833ZM302.278 22.9545C302.278 24.1721 301.792 25.3398 300.927 26.2008C300.062 27.0618 298.89 27.5455 297.667 27.5455H260.778C259.555 27.5455 258.382 27.0618 257.517 26.2008C256.652 25.3398 256.167 24.1721 256.167 22.9545V13.7727C256.167 12.5551 256.652 11.3874 257.517 10.5265C258.382 9.6655 259.555 9.18182 260.778 9.18182H297.667C298.89 9.18182 300.062 9.6655 300.927 10.5265C301.792 11.3874 302.278 12.5551 302.278 13.7727V22.9545Z" fill="white"/>
<path d="M297.667 126H260.778C257.109 126 253.59 127.451 250.996 130.034C248.402 132.617 246.944 136.12 246.944 139.773H242.333C238.665 139.773 235.146 141.224 232.552 143.807C229.957 146.39 228.5 149.893 228.5 153.545V167.318C228.5 170.971 229.957 174.474 232.552 177.057C235.146 179.64 238.665 181.091 242.333 181.091H270C271.223 181.091 272.396 181.575 273.261 182.436C274.125 183.297 274.611 184.464 274.611 185.682V190.273C272.165 190.273 269.82 191.24 268.09 192.962C266.361 194.684 265.389 197.019 265.389 199.455V217.818C265.389 220.253 266.361 222.589 268.09 224.311C269.82 226.033 272.165 227 274.611 227H283.833C286.279 227 288.625 226.033 290.354 224.311C292.084 222.589 293.056 220.253 293.056 217.818V199.455C293.056 197.019 292.084 194.684 290.354 192.962C288.625 191.24 286.279 190.273 283.833 190.273V185.682C283.833 182.029 282.376 178.526 279.782 175.943C277.187 173.36 273.669 171.909 270 171.909H242.333C241.11 171.909 239.938 171.425 239.073 170.564C238.208 169.703 237.722 168.536 237.722 167.318V153.545C237.722 152.328 238.208 151.16 239.073 150.299C239.938 149.438 241.11 148.955 242.333 148.955H246.944C246.944 152.607 248.402 156.11 250.996 158.693C253.59 161.276 257.109 162.727 260.778 162.727H297.667C301.335 162.727 304.854 161.276 307.448 158.693C310.043 156.11 311.5 152.607 311.5 148.955V139.773C311.5 136.12 310.043 132.617 307.448 130.034C304.854 127.451 301.335 126 297.667 126ZM283.833 199.455V217.818H274.611V199.455H283.833ZM302.278 148.955C302.278 150.172 301.792 151.34 300.927 152.201C300.062 153.062 298.89 153.545 297.667 153.545H260.778C259.555 153.545 258.382 153.062 257.517 152.201C256.652 151.34 256.167 150.172 256.167 148.955V139.773C256.167 138.555 256.652 137.387 257.517 136.526C258.382 135.666 259.555 135.182 260.778 135.182H297.667C298.89 135.182 300.062 135.666 300.927 136.526C301.792 137.387 302.278 138.555 302.278 139.773V148.955Z" fill="white"/>
<path d="M69.6667 252H32.7778C29.1089 252 25.5904 253.465 22.9961 256.074C20.4019 258.682 18.9444 262.22 18.9444 265.909H14.3333C10.6645 265.909 7.14594 267.375 4.55169 269.983C1.95744 272.591 0.5 276.129 0.5 279.818V293.727C0.5 297.416 1.95744 300.954 4.55169 303.562C7.14594 306.171 10.6645 307.636 14.3333 307.636H42C43.2229 307.636 44.3958 308.125 45.2605 308.994C46.1253 309.864 46.6111 311.043 46.6111 312.273V316.909C44.1652 316.909 41.8195 317.886 40.09 319.625C38.3605 321.364 37.3889 323.723 37.3889 326.182V344.727C37.3889 347.187 38.3605 349.545 40.09 351.284C41.8195 353.023 44.1652 354 46.6111 354H55.8333C58.2792 354 60.6249 353.023 62.3544 351.284C64.0839 349.545 65.0556 347.187 65.0556 344.727V326.182C65.0556 323.723 64.0839 321.364 62.3544 319.625C60.6249 317.886 58.2792 316.909 55.8333 316.909V312.273C55.8333 308.584 54.3759 305.046 51.7816 302.438C49.1874 299.829 45.6688 298.364 42 298.364H14.3333C13.1104 298.364 11.9375 297.875 11.0728 297.006C10.208 296.136 9.72222 294.957 9.72222 293.727V279.818C9.72222 278.589 10.208 277.409 11.0728 276.54C11.9375 275.67 13.1104 275.182 14.3333 275.182H18.9444C18.9444 278.871 20.4019 282.409 22.9961 285.017C25.5904 287.625 29.1089 289.091 32.7778 289.091H69.6667C73.3355 289.091 76.8541 287.625 79.4483 285.017C82.0426 282.409 83.5 278.871 83.5 275.182V265.909C83.5 262.22 82.0426 258.682 79.4483 256.074C76.8541 253.465 73.3355 252 69.6667 252ZM55.8333 326.182V344.727H46.6111V326.182H55.8333ZM74.2778 275.182C74.2778 276.411 73.792 277.591 72.9272 278.46C72.0625 279.33 70.8896 279.818 69.6667 279.818H32.7778C31.5548 279.818 30.382 279.33 29.5172 278.46C28.6525 277.591 28.1667 276.411 28.1667 275.182V265.909C28.1667 264.679 28.6525 263.5 29.5172 262.631C30.382 261.761 31.5548 261.273 32.7778 261.273H69.6667C70.8896 261.273 72.0625 261.761 72.9272 262.631C73.792 263.5 74.2778 264.679 74.2778 265.909V275.182Z" fill="white"/>
<path d="M182.833 252H146.389C142.764 252 139.288 253.451 136.725 256.034C134.162 258.617 132.722 262.12 132.722 265.773H128.167C124.542 265.773 121.066 267.224 118.503 269.807C115.94 272.39 114.5 275.893 114.5 279.545V293.318C114.5 296.971 115.94 300.474 118.503 303.057C121.066 305.64 124.542 307.091 128.167 307.091H155.5C156.708 307.091 157.867 307.575 158.721 308.436C159.576 309.297 160.056 310.464 160.056 311.682V316.273C157.639 316.273 155.322 317.24 153.613 318.962C151.904 320.684 150.944 323.019 150.944 325.455V343.818C150.944 346.253 151.904 348.589 153.613 350.311C155.322 352.033 157.639 353 160.056 353H169.167C171.583 353 173.901 352.033 175.609 350.311C177.318 348.589 178.278 346.253 178.278 343.818V325.455C178.278 323.019 177.318 320.684 175.609 318.962C173.901 317.24 171.583 316.273 169.167 316.273V311.682C169.167 308.029 167.727 304.526 165.164 301.943C162.601 299.36 159.125 297.909 155.5 297.909H128.167C126.958 297.909 125.8 297.425 124.945 296.564C124.091 295.703 123.611 294.536 123.611 293.318V279.545C123.611 278.328 124.091 277.16 124.945 276.299C125.8 275.438 126.958 274.955 128.167 274.955H132.722C132.722 278.607 134.162 282.11 136.725 284.693C139.288 287.276 142.764 288.727 146.389 288.727H182.833C186.458 288.727 189.934 287.276 192.497 284.693C195.06 282.11 196.5 278.607 196.5 274.955V265.773C196.5 262.12 195.06 258.617 192.497 256.034C189.934 253.451 186.458 252 182.833 252ZM169.167 325.455V343.818H160.056V325.455H169.167ZM187.389 274.955C187.389 276.172 186.909 277.34 186.055 278.201C185.2 279.062 184.042 279.545 182.833 279.545H146.389C145.181 279.545 144.022 279.062 143.168 278.201C142.313 277.34 141.833 276.172 141.833 274.955V265.773C141.833 264.555 142.313 263.387 143.168 262.526C144.022 261.666 145.181 261.182 146.389 261.182H182.833C184.042 261.182 185.2 261.666 186.055 262.526C186.909 263.387 187.389 264.555 187.389 265.773V274.955Z" fill="white"/>
<path d="M297.667 252H260.778C257.109 252 253.59 253.451 250.996 256.034C248.402 258.617 246.944 262.12 246.944 265.773H242.333C238.665 265.773 235.146 267.224 232.552 269.807C229.957 272.39 228.5 275.893 228.5 279.545V293.318C228.5 296.971 229.957 300.474 232.552 303.057C235.146 305.64 238.665 307.091 242.333 307.091H270C271.223 307.091 272.396 307.575 273.261 308.436C274.125 309.297 274.611 310.464 274.611 311.682V316.273C272.165 316.273 269.82 317.24 268.09 318.962C266.361 320.684 265.389 323.019 265.389 325.455V343.818C265.389 346.253 266.361 348.589 268.09 350.311C269.82 352.033 272.165 353 274.611 353H283.833C286.279 353 288.625 352.033 290.354 350.311C292.084 348.589 293.056 346.253 293.056 343.818V325.455C293.056 323.019 292.084 320.684 290.354 318.962C288.625 317.24 286.279 316.273 283.833 316.273V311.682C283.833 308.029 282.376 304.526 279.782 301.943C277.187 299.36 273.669 297.909 270 297.909H242.333C241.11 297.909 239.938 297.425 239.073 296.564C238.208 295.703 237.722 294.536 237.722 293.318V279.545C237.722 278.328 238.208 277.16 239.073 276.299C239.938 275.438 241.11 274.955 242.333 274.955H246.944C246.944 278.607 248.402 282.11 250.996 284.693C253.59 287.276 257.109 288.727 260.778 288.727H297.667C301.335 288.727 304.854 287.276 307.448 284.693C310.043 282.11 311.5 278.607 311.5 274.955V265.773C311.5 262.12 310.043 258.617 307.448 256.034C304.854 253.451 301.335 252 297.667 252ZM283.833 325.455V343.818H274.611V325.455H283.833ZM302.278 274.955C302.278 276.172 301.792 277.34 300.927 278.201C300.062 279.062 298.89 279.545 297.667 279.545H260.778C259.555 279.545 258.382 279.062 257.517 278.201C256.652 277.34 256.167 276.172 256.167 274.955V265.773C256.167 264.555 256.652 263.387 257.517 262.526C258.382 261.666 259.555 261.182 260.778 261.182H297.667C298.89 261.182 300.062 261.666 300.927 262.526C301.792 263.387 302.278 264.555 302.278 265.773V274.955Z" fill="white"/>
</svg>
