<svg xmlns="http://www.w3.org/2000/svg" version="1.1" xmlns:xlink="http://www.w3.org/1999/xlink" xmlns:svgjs="http://svgjs.dev/svgjs" viewBox="0 0 800 800"><g stroke="hsl(0, 0%, 100%)" fill="none" stroke-linecap="round"><circle r="363" cx="400" cy="400" stroke-width="7" stroke-dasharray="1939 2281" opacity="1.00"></circle><circle r="346.5" cx="400" cy="400" stroke-width="7" stroke-dasharray="1762 2177" opacity="0.95"></circle><circle r="330" cx="400" cy="400" stroke-width="7" stroke-dasharray="1595 2073" opacity="0.91"></circle><circle r="313.5" cx="400" cy="400" stroke-width="7" stroke-dasharray="1435 1970" opacity="0.86"></circle><circle r="297" cx="400" cy="400" stroke-width="7" stroke-dasharray="1284 1866" opacity="0.82"></circle><circle r="280.5" cx="400" cy="400" stroke-width="7" stroke-dasharray="1141 1762" opacity="0.77"></circle><circle r="264" cx="400" cy="400" stroke-width="7" stroke-dasharray="1007 1659" opacity="0.73"></circle><circle r="247.5" cx="400" cy="400" stroke-width="7" stroke-dasharray="881 1555" opacity="0.68"></circle><circle r="231" cx="400" cy="400" stroke-width="7" stroke-dasharray="764 1451" opacity="0.64"></circle><circle r="214.5" cx="400" cy="400" stroke-width="7" stroke-dasharray="655 1348" opacity="0.59"></circle><circle r="198" cx="400" cy="400" stroke-width="7" stroke-dasharray="554 1244" opacity="0.55"></circle><circle r="181.5" cx="400" cy="400" stroke-width="7" stroke-dasharray="462 1140" opacity="0.50"></circle><circle r="165" cx="400" cy="400" stroke-width="7" stroke-dasharray="378 1037" opacity="0.46"></circle><circle r="148.5" cx="400" cy="400" stroke-width="7" stroke-dasharray="302 933" opacity="0.41"></circle><circle r="132" cx="400" cy="400" stroke-width="7" stroke-dasharray="235 829" opacity="0.37"></circle><circle r="115.5" cx="400" cy="400" stroke-width="7" stroke-dasharray="176 726" opacity="0.32"></circle><circle r="99" cx="400" cy="400" stroke-width="7" stroke-dasharray="126 622" opacity="0.28"></circle><circle r="82.5" cx="400" cy="400" stroke-width="7" stroke-dasharray="84 518" opacity="0.23"></circle><circle r="66" cx="400" cy="400" stroke-width="7" stroke-dasharray="50 415" opacity="0.19"></circle><circle r="49.5" cx="400" cy="400" stroke-width="7" stroke-dasharray="25 311" opacity="0.14"></circle><circle r="33" cx="400" cy="400" stroke-width="7" stroke-dasharray="8 207" opacity="0.10"></circle><circle r="16.5" cx="400" cy="400" stroke-width="7" stroke-dasharray="0 104" opacity="0.05"></circle></g></svg>