<svg xmlns="http://www.w3.org/2000/svg" version="1.1" xmlns:xlink="http://www.w3.org/1999/xlink" xmlns:svgjs="http://svgjs.dev/svgjs" viewBox="0 0 800 800"><g stroke="hsl(0, 0%, 100%)" fill="none" stroke-linecap="round"><circle r="330" cx="400" cy="400" stroke-width="7" stroke-dasharray="0 2073" stroke-dashoffset="1000" opacity="1.00"></circle><circle r="315" cx="400" cy="400" stroke-width="7" stroke-dasharray="94 1979" transform="rotate(17, 400, 400)" stroke-dashoffset="1000" opacity="0.95"></circle><circle r="300" cx="400" cy="400" stroke-width="7" stroke-dasharray="180 1885" transform="rotate(34, 400, 400)" stroke-dashoffset="1000" opacity="0.91"></circle><circle r="285" cx="400" cy="400" stroke-width="7" stroke-dasharray="256 1791" transform="rotate(51, 400, 400)" stroke-dashoffset="1000" opacity="0.86"></circle><circle r="270" cx="400" cy="400" stroke-width="7" stroke-dasharray="323 1696" transform="rotate(69, 400, 400)" stroke-dashoffset="1000" opacity="0.82"></circle><circle r="255" cx="400" cy="400" stroke-width="7" stroke-dasharray="381 1602" transform="rotate(86, 400, 400)" stroke-dashoffset="1000" opacity="0.77"></circle><circle r="240" cx="400" cy="400" stroke-width="7" stroke-dasharray="431 1508" transform="rotate(103, 400, 400)" stroke-dashoffset="1000" opacity="0.73"></circle><circle r="225" cx="400" cy="400" stroke-width="7" stroke-dasharray="471 1414" transform="rotate(120, 400, 400)" stroke-dashoffset="1000" opacity="0.68"></circle><circle r="210" cx="400" cy="400" stroke-width="7" stroke-dasharray="503 1319" transform="rotate(137, 400, 400)" stroke-dashoffset="1000" opacity="0.64"></circle><circle r="195" cx="400" cy="400" stroke-width="7" stroke-dasharray="525 1225" transform="rotate(154, 400, 400)" stroke-dashoffset="1000" opacity="0.59"></circle><circle r="180" cx="400" cy="400" stroke-width="7" stroke-dasharray="539 1131" transform="rotate(171, 400, 400)" stroke-dashoffset="1000" opacity="0.55"></circle><circle r="165" cx="400" cy="400" stroke-width="7" stroke-dasharray="543 1037" transform="rotate(189, 400, 400)" stroke-dashoffset="1000" opacity="0.50"></circle><circle r="150" cx="400" cy="400" stroke-width="7" stroke-dasharray="539 942" transform="rotate(206, 400, 400)" stroke-dashoffset="1000" opacity="0.46"></circle><circle r="135" cx="400" cy="400" stroke-width="7" stroke-dasharray="525 848" transform="rotate(223, 400, 400)" stroke-dashoffset="1000" opacity="0.41"></circle><circle r="120" cx="400" cy="400" stroke-width="7" stroke-dasharray="503 754" transform="rotate(240, 400, 400)" stroke-dashoffset="1000" opacity="0.37"></circle><circle r="105" cx="400" cy="400" stroke-width="7" stroke-dasharray="471 660" transform="rotate(257, 400, 400)" stroke-dashoffset="1000" opacity="0.32"></circle><circle r="90" cx="400" cy="400" stroke-width="7" stroke-dasharray="431 565" transform="rotate(274, 400, 400)" stroke-dashoffset="1000" opacity="0.28"></circle><circle r="75" cx="400" cy="400" stroke-width="7" stroke-dasharray="381 471" transform="rotate(291, 400, 400)" stroke-dashoffset="1000" opacity="0.23"></circle><circle r="60" cx="400" cy="400" stroke-width="7" stroke-dasharray="323 377" transform="rotate(309, 400, 400)" stroke-dashoffset="1000" opacity="0.19"></circle><circle r="45" cx="400" cy="400" stroke-width="7" stroke-dasharray="256 283" transform="rotate(326, 400, 400)" stroke-dashoffset="1000" opacity="0.14"></circle><circle r="30" cx="400" cy="400" stroke-width="7" stroke-dasharray="180 188" transform="rotate(343, 400, 400)" stroke-dashoffset="1000" opacity="0.10"></circle><circle r="15" cx="400" cy="400" stroke-width="7" stroke-dasharray="94 94" transform="rotate(360, 400, 400)" stroke-dashoffset="1000" opacity="0.05"></circle></g></svg>